<svg xmlns="http://www.w3.org/2000/svg" viewBox="0 0 500 500"><g id="freepik--Character--inject-9"><path d="M434.21,241.94c-1.4-1.49-.79-1-13.59,6.84,0,0,18.17-11.32,12.31-12-1-.12-4.07,1.29-7.34,3,4.53-3.16,5.92-5.45,5.24-6.67-1.18-2.11-12.23,4.08-17.32,7.08,4.17-2.53,12.14-7.46,13.62-9.1,2-2.24-1.63-2.4-4.68-1.67-3.43.82-22.65,8.41-28.32,10.31-3.89,1.31-4.88-2.19-4.88-2.19-1.19-8.59-6.71-14.64-9-15.58s-4.31,1.86-2.87,4.16c1.17,1.85,2.17,5.52,2.81,8.31a20.83,20.83,0,0,1,.43,7c-.31,2.71-6.26,14-8.66,15.86l23.09,20.17s26.53-22.44,31.65-26.66C433,245.64,435.26,243.06,434.21,241.94Z" style="fill:#ffbe9d"></path><path d="M414.24,252.14c.21.36,4.64-2.1,9.9-5.49s9.33-6.43,9.09-6.77-4.67,2.13-9.9,5.5S414,251.79,414.24,252.14Z" style="fill:#eb996e"></path><path d="M410.37,247.08c.2.36,5.07-2,10.88-5.26s10.34-6.22,10.14-6.58-5.07,2-10.88,5.27S410.16,246.72,410.37,247.08Z" style="fill:#eb996e"></path><path d="M406.37,241.8c.2.36,4.85-1.79,10.38-4.81s9.86-5.76,9.66-6.13-4.85,1.79-10.38,4.81S406.17,241.44,406.37,241.8Z" style="fill:#eb996e"></path><path d="M293.81,302.21l71.54-51.48,32.39,28.8-63,58.09c-25,22.63-33.79,28.37-75.28,4.73l-26.33-15.08,9.72,120.1H123.79c-13.08-.42,17-33.24,15-33.24L112.62,326,72.2,353.11l38.31,29.95-18.68,39.6L30.88,385.54c-23.74-15.79-20.56-46.55-.3-66.63,36.48-36.15,63.93-61.42,95.12-66.75a222.86,222.86,0,0,1,24-3.93s23.14-3.18,39.13-2.58a106.68,106.68,0,0,1,11.42,1.12,91.42,91.42,0,0,1,40.56,16.69Z" style="fill:#263238"></path><path d="M118.36,343.26a2.06,2.06,0,0,1-.2-.44l-.48-1.28c-.41-1.11-1-2.74-1.67-4.75-1.39-4.1-3.25-9.63-5.31-15.74s-4.06-11.67-5.57-15.64l-1.8-4.7c-.2-.51-.35-.93-.49-1.28a1.6,1.6,0,0,1-.13-.47,2.87,2.87,0,0,1,.23.42c.16.34.35.75.57,1.25.5,1.08,1.17,2.67,2,4.64,1.6,4,3.64,9.46,5.72,15.61s3.87,11.74,5.17,15.79l1.51,4.81c.16.52.28.95.39,1.31A1.27,1.27,0,0,1,118.36,343.26Z" style="fill:#455a64"></path><path d="M198.4,266.64a1.56,1.56,0,0,1,0,.49c0,.39,0,.86,0,1.43,0,.32,0,.66,0,1s-.08.79-.13,1.22a27.39,27.39,0,0,1-.42,3c-.11.54-.23,1.11-.34,1.71s-.33,1.19-.5,1.82a39.94,39.94,0,0,1-1.33,3.95,41.87,41.87,0,0,1-10.88,15.53,39.61,39.61,0,0,1-3.26,2.61c-.53.37-1,.76-1.54,1.08l-1.49.91a29.47,29.47,0,0,1-2.64,1.41c-.4.19-.76.38-1.11.54l-1,.37-1.33.5a2.6,2.6,0,0,1-.48.15,1.69,1.69,0,0,1,.44-.24l1.29-.59.94-.42c.34-.16.69-.37,1.08-.57a29.45,29.45,0,0,0,2.58-1.47l1.45-.92c.51-.33,1-.72,1.52-1.1,1.06-.74,2.08-1.67,3.18-2.62a42.85,42.85,0,0,0,10.76-15.35c.51-1.36,1-2.64,1.37-3.89.17-.62.38-1.21.52-1.8s.25-1.14.37-1.68a28.36,28.36,0,0,0,.49-2.93c.06-.43.13-.84.17-1.21s.05-.71.07-1c0-.57.08-1,.11-1.42A2,2,0,0,1,198.4,266.64Z" style="fill:#455a64"></path><path d="M227.9,291.24c.14,0,1.45,8.35,2.92,18.69s2.55,18.76,2.41,18.78-1.45-8.35-2.92-18.7S227.76,291.26,227.9,291.24Z" style="fill:#455a64"></path><path d="M73.68,353.26c0,.1-1.86-.63-5-1.16a22.25,22.25,0,0,0-2.54-.32c-.91-.11-1.9-.1-2.93-.12a36.25,36.25,0,0,0-6.68.77,35.65,35.65,0,0,0-6.36,2.15c-.93.46-1.82.87-2.61,1.35a21.9,21.9,0,0,0-2.16,1.37c-2.57,1.8-3.91,3.24-4,3.15a8.72,8.72,0,0,1,.92-1,11.15,11.15,0,0,1,1.19-1.1A18.15,18.15,0,0,1,45.23,357a21.88,21.88,0,0,1,2.16-1.44c.79-.51,1.69-.94,2.63-1.42a33.4,33.4,0,0,1,6.45-2.22,33.91,33.91,0,0,1,6.78-.74c1,0,2,0,3,.17a22.24,22.24,0,0,1,2.57.38c.78.12,1.47.35,2.08.5a10.58,10.58,0,0,1,1.53.5A6.56,6.56,0,0,1,73.68,353.26Z" style="fill:#455a64"></path><path d="M295.46,325.82a3.49,3.49,0,0,1-.53-.84,19.7,19.7,0,0,1-1.14-2.47,26.22,26.22,0,0,1-1.16-3.87,26.84,26.84,0,0,1-.35-9.84,25.86,25.86,0,0,1,.89-3.94,19.1,19.1,0,0,1,.95-2.54,4.09,4.09,0,0,1,.47-.88c.09,0-.48,1.33-1.07,3.52a30.23,30.23,0,0,0-.77,3.9,31.49,31.49,0,0,0-.22,4.86,31.83,31.83,0,0,0,.57,4.83,29.17,29.17,0,0,0,1,3.83C294.88,324.52,295.54,325.78,295.46,325.82Z" style="fill:#455a64"></path><path d="M152.8,126c10-10.17,25.76-16.18,38.82-10.46,8.79,3.84,14.74,12.08,22.45,17.78,5.62,4.15,12.55,7.36,15.5,13.69,2.59,5.58,1.34,12.08.71,18.2s-.18,13.19,4.56,17.11c2.49,2.06,5.76,2.88,8.57,4.49,5.64,3.23,9,9.52,10.21,15.92s.55,13-.1,19.44l-26.91,5.13-4.42-7.43-1.54,11.68-34.34,3.1Z" style="fill:#263238"></path><path d="M148.36,137.09l-.06,7.48-2.11,112.24c-.19,13,12.26,24.08,26.19,24.17h0c14.07.1,19.81-10.47,20.21-23.61.43-13.79,1.12-28.3,1.12-28.3s17.85-2.46,22.17-25.54c2.15-11.48,2.09-30.4,1.54-45.87a24.49,24.49,0,0,0-26.36-23.57Z" style="fill:#ffbe9d"></path><path d="M209.57,170.56a3,3,0,0,1-2.94,2.92,2.85,2.85,0,0,1-3-2.76,3,3,0,0,1,3-2.92A2.83,2.83,0,0,1,209.57,170.56Z" style="fill:#263238"></path><path d="M213.05,167.38c-.38.37-2.58-1.36-5.78-1.44s-5.59,1.46-5.93,1.06c-.16-.18.23-.87,1.28-1.59a8.18,8.18,0,0,1,4.75-1.32,7.91,7.91,0,0,1,4.59,1.62C212.93,166.5,213.24,167.21,213.05,167.38Z" style="fill:#263238"></path><path d="M177.72,170.2a3,3,0,0,1-2.94,2.92,2.85,2.85,0,0,1-3-2.77,3,3,0,0,1,2.94-2.92A2.85,2.85,0,0,1,177.72,170.2Z" style="fill:#263238"></path><path d="M181.59,167.11c-.38.37-2.59-1.36-5.78-1.44s-5.59,1.46-5.93,1.06c-.16-.18.23-.87,1.27-1.59a8.24,8.24,0,0,1,4.76-1.32,7.91,7.91,0,0,1,4.59,1.62C181.46,166.23,181.78,166.94,181.59,167.11Z" style="fill:#263238"></path><path d="M192.55,191.15c0-.18,2-.47,5.22-.79.82-.07,1.6-.21,1.75-.76a4.15,4.15,0,0,0-.48-2.44l-2.24-6.28c-3.11-8.95-5.34-16.3-5-16.42s3.18,7,6.29,16c.74,2.2,1.46,4.31,2.14,6.32a4.75,4.75,0,0,1,.33,3.22,2,2,0,0,1-1.37,1.15,5.72,5.72,0,0,1-1.4.16C194.57,191.37,192.55,191.33,192.55,191.15Z" style="fill:#263238"></path><path d="M193.71,229.07a59,59,0,0,1-30.81-9.14s7.09,16.13,30.35,14.6Z" style="fill:#eb996e"></path><path d="M191,198.82a5.77,5.77,0,0,0-5.11-2.28,5.23,5.23,0,0,0-3.68,1.85,3.31,3.31,0,0,0-.36,3.8,3.86,3.86,0,0,0,4.16,1.18,12.09,12.09,0,0,0,4.16-2.33,3.58,3.58,0,0,0,.94-.92,1.09,1.09,0,0,0,0-1.19" style="fill:#eb996e"></path><path d="M183.07,193.1c.52,0,.43,3.46,3.34,6s6.61,2.26,6.62,2.75c.05.22-.84.65-2.4.65a8.64,8.64,0,0,1-5.54-2.1,7.53,7.53,0,0,1-2.57-5C182.42,193.93,182.83,193.08,183.07,193.1Z" style="fill:#263238"></path><path d="M182.61,157.8c-.34.86-3.52.36-7.29.71s-6.83,1.29-7.31.49c-.21-.38.34-1.18,1.59-2a12.11,12.11,0,0,1,5.45-1.74,12.3,12.3,0,0,1,5.67.82C182.08,156.69,182.75,157.39,182.61,157.8Z" style="fill:#263238"></path><path d="M213.17,160.91c-.7.71-3.36-.12-6.59-.24s-6,.32-6.58-.46c-.26-.37.19-1.09,1.4-1.74a10.61,10.61,0,0,1,5.39-1.05A10.39,10.39,0,0,1,212,159C213.13,159.81,213.48,160.57,213.17,160.91Z" style="fill:#263238"></path><path d="M164.92,123.39c4.2,5.64,6.19,10,8.71,20,1.23,4.91-2.76,8.37-6.72,11.37a3.2,3.2,0,0,1-5.06-1.85h0s1.38,15.36-4.17,22.25c-2.61,3.23-2.72,7.37-2.1,10.86a18.43,18.43,0,0,0,5,9.39c6.44,6.77,8.23,17.82,3.79,26.12-1.14,2.13-2.63,4.07-3.53,6.31a9.4,9.4,0,0,0-.74,4.07,3.22,3.22,0,0,1-2.74,3.43,253.68,253.68,0,0,1-57.63,1.74,3.18,3.18,0,0,1-2.82-2.39c-1.5-6.37,1-13.31,4.23-19.17,3.59-6.54,8.16-12.82,9.4-20.19,1.16-6.93-.73-14.4,2-20.85,3.42-7.92,12.71-11.66,17.36-18.93,4.39-6.85,4-15.84,8-23,5-9.15,17.47-13.37,27-9.2" style="fill:#263238"></path><path d="M166,131.9c7.29,3.75,10.66,12.67,17.74,16.8,6.45,3.76,14.5,2.76,21.89,1.65-.28-1.63-.55-3.27-.83-4.91a13.33,13.33,0,0,0,2.74,4,4.49,4.49,0,0,0,4.49,1.06c2.47-1,2.8-4.4,2.17-7a24.1,24.1,0,0,0-6.45-10.92,32.67,32.67,0,0,0-42.64-3.4" style="fill:#263238"></path><path d="M137.71,150.87a14.83,14.83,0,0,0-3.39-16.22,16.68,16.68,0,0,0-16.42-3.55,12.66,12.66,0,0,0-6.41,4.38c-2.84,3.92-2.29,9.7.65,13.55s7.84,5.89,12.68,6.16,9.64-1.06,14.12-2.92" style="fill:#263238"></path><path d="M129.76,151c.08-.09,1.4,1,3.82,2.37a27.86,27.86,0,0,0,4.45,1.94,30.72,30.72,0,0,0,5.78,1.29,31.11,31.11,0,0,0,5.93.06,27.44,27.44,0,0,0,4.76-.88c2.67-.75,4.21-1.55,4.26-1.44a4.76,4.76,0,0,1-1,.61,9.62,9.62,0,0,1-1.3.59,17.24,17.24,0,0,1-1.79.65,25.11,25.11,0,0,1-4.83,1,29.12,29.12,0,0,1-6,0,29.53,29.53,0,0,1-5.9-1.36,25,25,0,0,1-4.47-2.1,17,17,0,0,1-1.59-1,11.62,11.62,0,0,1-1.13-.87A5.06,5.06,0,0,1,129.76,151Z" style="fill:#455a64"></path><path d="M159.72,164.37a5.4,5.4,0,0,1-1.27.39c-.82.21-2,.48-3.52.74a32.17,32.17,0,0,1-11.88.07,18.55,18.55,0,0,1-10.26-5.85,12.68,12.68,0,0,1-1.94-3.06,4.25,4.25,0,0,1-.42-1.25,20.62,20.62,0,0,0,2.68,4A19,19,0,0,0,143.18,165a34.71,34.71,0,0,0,11.68.1c1.5-.21,2.71-.41,3.55-.55A5.7,5.7,0,0,1,159.72,164.37Z" style="fill:#455a64"></path><path d="M118.43,235.32s-.06,0-.15-.16a4.28,4.28,0,0,1-.39-.51,6.75,6.75,0,0,1-.93-2.33,10.62,10.62,0,0,1,2.55-8.61,21.8,21.8,0,0,1,4.85-4.09c1.9-1.25,4-2.41,6.13-3.82a18.82,18.82,0,0,0,5.59-5.45,10.08,10.08,0,0,0,1.39-3.83,12.06,12.06,0,0,0-.23-4.22,52.5,52.5,0,0,0-2.93-8,21.92,21.92,0,0,1-2-7.8,20.84,20.84,0,0,1,4-12.85,19.51,19.51,0,0,1,6.84-6l1.3-.62,1-.35a4.94,4.94,0,0,1,.83-.25,4.55,4.55,0,0,1-.79.36l-1,.4-1.26.67a19.86,19.86,0,0,0-6.6,6.06,20.62,20.62,0,0,0-3.77,12.58,22,22,0,0,0,1.95,7.61,50.85,50.85,0,0,1,3,8.09,12.49,12.49,0,0,1,.23,4.43,10.29,10.29,0,0,1-1.48,4.06,19.1,19.1,0,0,1-5.78,5.6c-2.14,1.43-4.28,2.56-6.17,3.78a21.88,21.88,0,0,0-4.8,4,10.53,10.53,0,0,0-2.64,8.29A8,8,0,0,0,118.43,235.32Z" style="fill:#455a64"></path><path d="M149.31,235.74a3.53,3.53,0,0,1-.67-.37,5.51,5.51,0,0,1-1.49-1.63,7.79,7.79,0,0,1-1.05-3.34,12.55,12.55,0,0,1,.51-4.61c.94-3.41,3.78-6.5,5.92-10.39a13,13,0,0,0,1.74-6.61,17.7,17.7,0,0,0-1.86-7.15c-2.2-4.66-5.59-8.37-7.93-12.25a25.12,25.12,0,0,1-2.73-5.83,14.08,14.08,0,0,1-.57-5.59,11,11,0,0,1,3.37-7.25,8.06,8.06,0,0,1,1.86-1.19,3.52,3.52,0,0,1,.73-.26,11.91,11.91,0,0,0-2.43,1.63A11,11,0,0,0,141.6,178a13.76,13.76,0,0,0,.63,5.4A24.82,24.82,0,0,0,145,189.1c1.18,1.89,2.59,3.79,4,5.78a40.75,40.75,0,0,1,4,6.5,18.2,18.2,0,0,1,1.9,7.41,13.38,13.38,0,0,1-1.84,6.87c-2.22,4-5.06,7-6,10.25a12.57,12.57,0,0,0-.58,4.46,7.68,7.68,0,0,0,.91,3.25A6.71,6.71,0,0,0,149.31,235.74Z" style="fill:#455a64"></path><path d="M195.07,148.71s-.16,0-.44-.18a8.91,8.91,0,0,1-1.15-.74,13.79,13.79,0,0,1-3.33-3.71,41.09,41.09,0,0,1-3.21-6.66c-.54-1.28-1.11-2.61-1.81-3.92a24.35,24.35,0,0,0-2.56-3.83,26.15,26.15,0,0,0-13.4-8.63,35.73,35.73,0,0,0-6.67-1,9.14,9.14,0,0,1,1.83-.1,24.57,24.57,0,0,1,4.95.64,25.15,25.15,0,0,1,6.86,2.78,25.5,25.5,0,0,1,6.9,5.89,24.14,24.14,0,0,1,2.61,3.93,43,43,0,0,1,1.8,4,44.57,44.57,0,0,0,3.06,6.64,14.94,14.94,0,0,0,3.12,3.76C194.52,148.36,195.09,148.66,195.07,148.71Z" style="fill:#455a64"></path><path d="M211.24,148.62a2.92,2.92,0,0,1-.63-.07,9.49,9.49,0,0,1-1.74-.45,15.27,15.27,0,0,1-5.53-3.59,33.25,33.25,0,0,1-5.73-7.93c-1.82-3.18-3.58-6.85-6.31-10a19.77,19.77,0,0,0-9.83-6.14,38.66,38.66,0,0,0-9.58-1.27c-2.76-.06-5,.05-6.55.11l-1.79.07a2.83,2.83,0,0,1-.63,0,2,2,0,0,1,.62-.11c.41,0,1-.12,1.78-.18,1.55-.13,3.79-.32,6.58-.31a37.29,37.29,0,0,1,9.72,1.17,20.09,20.09,0,0,1,10.14,6.28c2.8,3.27,4.55,7,6.33,10.16a34.37,34.37,0,0,0,5.55,7.89,15.72,15.72,0,0,0,5.31,3.68C210.39,148.44,211.25,148.55,211.24,148.62Z" style="fill:#455a64"></path><path d="M238.61,223.86c-.06,0,.3-.82.68-2.34A21.78,21.78,0,0,0,240,215a22.11,22.11,0,0,0-2.46-9.37,21.72,21.72,0,0,0-3.32-4.69c-1.34-1.5-2.88-2.91-4.43-4.4a41.24,41.24,0,0,1-4.3-4.61,29,29,0,0,1-3.09-5,28,28,0,0,1-1.87-5,28.93,28.93,0,0,1-.87-4.55,27,27,0,0,1,.07-6.69,15.84,15.84,0,0,1,.32-1.78,3,3,0,0,1,.16-.62c.07,0-.11.87-.25,2.43a30,30,0,0,0,.12,6.61,30.67,30.67,0,0,0,.93,4.46,28.5,28.5,0,0,0,1.89,4.87,28.89,28.89,0,0,0,3.06,4.89,40.83,40.83,0,0,0,4.25,4.54c1.55,1.48,3.09,2.91,4.45,4.43a22.41,22.41,0,0,1,3.37,4.83,22.13,22.13,0,0,1,2.4,9.61,20.87,20.87,0,0,1-.9,6.63,13.38,13.38,0,0,1-.63,1.71A2,2,0,0,1,238.61,223.86Z" style="fill:#455a64"></path><path d="M111.6,147.7a3.59,3.59,0,0,1,.15-1.14,11.2,11.2,0,0,1,1.14-2.91,12.39,12.39,0,0,1,18-4.31,11.33,11.33,0,0,1,2.34,2.08,3.16,3.16,0,0,1,.64,1,20.28,20.28,0,0,0-3.21-2.67,12.32,12.32,0,0,0-17.41,4.16A20.92,20.92,0,0,0,111.6,147.7Z" style="fill:#455a64"></path><path d="M122.84,152.58a9.54,9.54,0,0,1,.32-2.63,11.63,11.63,0,0,1,2.74-5.81,6.14,6.14,0,0,1,6.15-1.56,3.65,3.65,0,0,1,1.64,1.12c.29.38.38.62.35.64a5.13,5.13,0,0,0-2.12-1.35,6,6,0,0,0-5.59,1.57,12.59,12.59,0,0,0-2.75,5.49A14.47,14.47,0,0,1,122.84,152.58Z" style="fill:#455a64"></path><path d="M137.56,135.6c.16.11-1.77,2.65-3,6.31s-1.38,6.85-1.57,6.83-.34-3.26,1-7A15.24,15.24,0,0,1,137.56,135.6Z" style="fill:#FF81AE"></path><polygon points="129.37 423.43 152.8 405.87 146.19 319.02 225.09 314.86 233.17 405.87 240.43 419.67 246.55 457.83 111.38 457.83 129.37 423.43" style="fill:#FF81AE"></polygon><path d="M207.21,245.57l10.54,73.91,7.6-1.67-9.07-69.62S211.43,243.94,207.21,245.57Z" style="fill:#FF81AE"></path><path d="M146.19,319l-29.38-64.78s3.24-4.45,6.44-4.45,2.45,2.37,2.45,2.37l27.1,67.32Z" style="fill:#FF81AE"></path><path d="M216.09,349.66a.75.75,0,0,1,0,.24c0,.19,0,.43,0,.71,0,.63.06,1.55.08,2.74a63.22,63.22,0,0,1-.62,10,36.71,36.71,0,0,1-4.89,14.08,26.29,26.29,0,0,1-5.88,6.61,24.73,24.73,0,0,1-3.93,2.59,21.53,21.53,0,0,1-4.5,1.78,18.85,18.85,0,0,1-4.81.67,18.08,18.08,0,0,1-4.67-.62,20.43,20.43,0,0,1-7.78-4.22A30.49,30.49,0,0,1,170.75,372a66.85,66.85,0,0,1-2.91-9.65c-.26-1.16-.45-2.06-.57-2.67-.05-.28-.09-.51-.13-.7a.87.87,0,0,1,0-.24,1.21,1.21,0,0,1,.07.23l.18.68c.17.65.39,1.54.67,2.66a73.56,73.56,0,0,0,3.05,9.55,30.27,30.27,0,0,0,8.39,12,20.09,20.09,0,0,0,7.6,4.1,17.94,17.94,0,0,0,4.54.59,18.26,18.26,0,0,0,4.67-.65,20.79,20.79,0,0,0,4.4-1.74,23.7,23.7,0,0,0,3.85-2.53,26.1,26.1,0,0,0,5.8-6.46,37.09,37.09,0,0,0,4.93-13.88,70.57,70.57,0,0,0,.78-10c0-1.15,0-2.07,0-2.73,0-.29,0-.52,0-.72A.64.64,0,0,1,216.09,349.66Z" style="fill:#263238"></path><path d="M211.79,346s-.12.11-.37.28-.63.41-1.14.69a35.93,35.93,0,0,1-4.42,2.13A40.19,40.19,0,0,1,190,352c-3.17-.06-6.16-.4-8.88-.59a46.49,46.49,0,0,0-7.22-.08,23,23,0,0,0-4.77.87,15.58,15.58,0,0,1-1.71.53,1.73,1.73,0,0,1,.41-.22,11.85,11.85,0,0,1,1.24-.5,20.63,20.63,0,0,1,4.8-1,42.59,42.59,0,0,1,7.28,0c2.73.16,5.72.49,8.86.55a42.66,42.66,0,0,0,20.17-4.68A14.24,14.24,0,0,1,211.79,346Z" style="fill:#263238"></path><g style="opacity:0.4"><path d="M167.19,363c1.68,7,3.41,14.17,7.14,20.36s9.83,11.38,17,12.15c6,.65,12.08-1.9,16.41-6.08a31.52,31.52,0,0,0,8.36-15.74c1.34-5.87.39-11.54,0-17.56,0,0-.44,6.73-1.15,9.17-1.84,6.26-4.14,12-8.63,16.76s-11.25,7.5-17.67,6.37c-5.48-1-10.22-4.64-13.5-9.14s-5.25-9.82-6.87-15.15"></path></g><g style="opacity:0.4"><path d="M185.15,341a20.59,20.59,0,0,1-5.58-2,7,7,0,0,1-2.53-2,3.08,3.08,0,0,1-.39-3.07,2.81,2.81,0,0,1,3.11-1.32,4.22,4.22,0,0,1,2.68,2.3c-.55-1.54.64-3.58,2.26-3.44a2.71,2.71,0,0,1,2.2,2.5,6.76,6.76,0,0,1-.78,3.47A11.31,11.31,0,0,0,185,340.9" style="fill:#fff"></path></g><g style="opacity:0.4"><path d="M204.46,417.72a20.17,20.17,0,0,1-5.58-2,6.86,6.86,0,0,1-2.53-2,3,3,0,0,1-.4-3.06,2.81,2.81,0,0,1,3.11-1.32,4.13,4.13,0,0,1,2.68,2.29c-.54-1.53.64-3.58,2.26-3.43a2.72,2.72,0,0,1,2.21,2.49,7,7,0,0,1-.78,3.48,11,11,0,0,0-1.13,3.4" style="fill:#fff"></path></g><g style="opacity:0.4"><path d="M220.3,452.11a20.47,20.47,0,0,1-5.58-2,7.07,7.07,0,0,1-2.53-2,3.08,3.08,0,0,1-.4-3.07,2.83,2.83,0,0,1,3.12-1.32,4.22,4.22,0,0,1,2.68,2.3c-.55-1.54.63-3.58,2.25-3.44a2.72,2.72,0,0,1,2.21,2.49,7,7,0,0,1-.78,3.48,11.07,11.07,0,0,0-1.13,3.4" style="fill:#fff"></path></g><g style="opacity:0.4"><path d="M195.7,372.71a20.15,20.15,0,0,1-5.58-2,7,7,0,0,1-2.53-2,3.08,3.08,0,0,1-.4-3.07,2.82,2.82,0,0,1,3.12-1.31,4.18,4.18,0,0,1,2.68,2.29c-.55-1.53.63-3.58,2.26-3.43a2.71,2.71,0,0,1,2.2,2.49,6.93,6.93,0,0,1-.78,3.48,11.25,11.25,0,0,0-1.13,3.4" style="fill:#fff"></path></g><g style="opacity:0.4"><path d="M218.93,397.26a20.56,20.56,0,0,1-4.7-3.59,7,7,0,0,1-1.79-2.68,3,3,0,0,1,.57-3,2.81,2.81,0,0,1,3.37-.29,4.17,4.17,0,0,1,1.83,3c0-1.63,1.72-3.21,3.21-2.57a2.73,2.73,0,0,1,1.33,3.06,6.94,6.94,0,0,1-1.82,3.06,11.55,11.55,0,0,0-2.13,2.89" style="fill:#fff"></path></g><g style="opacity:0.4"><path d="M157.21,451.9a20.28,20.28,0,0,1-4.7-3.59,7.11,7.11,0,0,1-1.79-2.68,3.08,3.08,0,0,1,.57-3,2.84,2.84,0,0,1,3.37-.29,4.22,4.22,0,0,1,1.84,3c-.05-1.63,1.71-3.21,3.21-2.57A2.72,2.72,0,0,1,161,445.8a6.92,6.92,0,0,1-1.82,3.06,11.25,11.25,0,0,0-2.13,2.89" style="fill:#fff"></path></g><g style="opacity:0.4"><path d="M207.87,336.77a11.56,11.56,0,0,1-3-1.33,4,4,0,0,1-1.3-1.21,1.72,1.72,0,0,1-.08-1.71,1.57,1.57,0,0,1,1.77-.58,2.31,2.31,0,0,1,1.37,1.38c-.23-.86.51-1.93,1.4-1.78a1.5,1.5,0,0,1,1.1,1.47,3.74,3.74,0,0,1-.59,1.87,6.63,6.63,0,0,0-.78,1.82" style="fill:#fff"></path></g><g style="opacity:0.4"><path d="M223.15,367.26a7.84,7.84,0,0,1-2.17-1,2.77,2.77,0,0,1-.95-.88,1.2,1.2,0,0,1-.06-1.24,1.13,1.13,0,0,1,1.29-.43,1.67,1.67,0,0,1,1,1c-.17-.63.37-1.42,1-1.3a1.08,1.08,0,0,1,.8,1.07,2.76,2.76,0,0,1-.43,1.37,4.38,4.38,0,0,0-.56,1.32" style="fill:#fff"></path></g><g style="opacity:0.4"><path d="M221,324.12a7.84,7.84,0,0,1-2.17-1,2.77,2.77,0,0,1-.95-.88,1.23,1.23,0,0,1-.06-1.24,1.13,1.13,0,0,1,1.29-.43,1.69,1.69,0,0,1,1,1c-.17-.63.38-1.41,1-1.3a1.08,1.08,0,0,1,.8,1.07,2.75,2.75,0,0,1-.42,1.37,4.35,4.35,0,0,0-.57,1.33" style="fill:#fff"></path></g><g style="opacity:0.4"><path d="M154.89,421.25a8.32,8.32,0,0,1-2.17-1,2.68,2.68,0,0,1-.95-.88,1.25,1.25,0,0,1-.06-1.24,1.14,1.14,0,0,1,1.3-.43,1.75,1.75,0,0,1,1,1c-.17-.63.37-1.41,1-1.3a1.1,1.1,0,0,1,.81,1.07,2.83,2.83,0,0,1-.43,1.37,4.46,4.46,0,0,0-.57,1.33" style="fill:#fff"></path></g><g style="opacity:0.4"><path d="M227.39,422.36a8.29,8.29,0,0,1-2.17-1,3,3,0,0,1-.95-.88,1.25,1.25,0,0,1-.05-1.25,1.12,1.12,0,0,1,1.29-.42,1.69,1.69,0,0,1,1,1c-.17-.64.37-1.42,1-1.31a1.12,1.12,0,0,1,.8,1.08,2.79,2.79,0,0,1-.43,1.36,4.86,4.86,0,0,0-.57,1.33" style="fill:#fff"></path></g><g style="opacity:0.4"><path d="M155.2,329.78a8.47,8.47,0,0,1-2.17-1,2.8,2.8,0,0,1-.95-.89,1.23,1.23,0,0,1-.06-1.24,1.12,1.12,0,0,1,1.29-.42,1.67,1.67,0,0,1,1,1c-.17-.64.37-1.42,1-1.31a1.09,1.09,0,0,1,.8,1.08,2.69,2.69,0,0,1-.43,1.36,4.43,4.43,0,0,0-.56,1.33" style="fill:#fff"></path></g><g style="opacity:0.4"><path d="M179.83,402.67a10.92,10.92,0,0,1-3-1.33,3.86,3.86,0,0,1-1.3-1.21,1.7,1.7,0,0,1-.08-1.7,1.55,1.55,0,0,1,1.77-.58,2.28,2.28,0,0,1,1.37,1.38c-.23-.87.51-1.94,1.4-1.79a1.51,1.51,0,0,1,1.1,1.47,3.78,3.78,0,0,1-.59,1.88,6.38,6.38,0,0,0-.78,1.82" style="fill:#fff"></path></g><g style="opacity:0.4"><path d="M190.83,443.93a10.92,10.92,0,0,1-3-1.33,3.94,3.94,0,0,1-1.3-1.2,1.72,1.72,0,0,1-.08-1.71,1.55,1.55,0,0,1,1.77-.58,2.28,2.28,0,0,1,1.37,1.38c-.23-.87.51-1.94,1.4-1.78a1.49,1.49,0,0,1,1.1,1.47,3.74,3.74,0,0,1-.59,1.87,6.5,6.5,0,0,0-.78,1.82" style="fill:#fff"></path></g><g style="opacity:0.4"><path d="M159.87,370.24a11.49,11.49,0,0,1-3-1.33,3.78,3.78,0,0,1-1.3-1.21,1.67,1.67,0,0,1-.08-1.7,1.55,1.55,0,0,1,1.77-.59,2.32,2.32,0,0,1,1.37,1.39c-.23-.87.51-1.94,1.39-1.79a1.49,1.49,0,0,1,1.1,1.47,3.9,3.9,0,0,1-.58,1.88,5.91,5.91,0,0,0-.78,1.81" style="fill:#fff"></path></g><path d="M233.17,405.87a4.52,4.52,0,0,1-.7.48c-.47.28-1.13.76-2.07,1.24a44.59,44.59,0,0,1-8.17,3.48c-7.13,2.36-17.57,3.8-29,3-5.71-.43-11.12-1-16-1.72a115.29,115.29,0,0,1-12.9-2.61c-3.63-1-6.51-1.93-8.47-2.66-1-.35-1.74-.67-2.25-.87a4.31,4.31,0,0,1-.77-.35,5.92,5.92,0,0,1,.81.25c.52.17,1.28.46,2.28.78,2,.67,4.87,1.58,8.49,2.5a127.74,127.74,0,0,0,12.88,2.49c4.89.69,10.31,1.24,16,1.67,11.37.78,21.75-.59,28.86-2.84a49.77,49.77,0,0,0,8.19-3.3c.94-.45,1.62-.91,2.11-1.16A5.78,5.78,0,0,1,233.17,405.87Z" style="fill:#263238"></path><path d="M109.27,385.32a50,50,0,0,0,4.19,3.53l7-2.52,8.69,4.45s7.8.82,7.87,3.63,4.64,16.66-1.3,26.13-10.13,12.6-10.13,12.6l-20.32-21.53-6-4.66Z" style="fill:#ffbe9d"></path></g><g id="freepik--Table--inject-9"><path d="M466.49,457.83c0,.15-96,.26-214.48.26s-214.5-.11-214.5-.26,96-.26,214.5-.26S466.49,457.69,466.49,457.83Z" style="fill:#263238"></path></g></svg>
