<svg xmlns="http://www.w3.org/2000/svg" viewBox="0 0 500 500"><g id="freepik--Character--inject-16"><path d="M121.81,264.23c-.51-.87-1.22-1-2.25-1.16a3.35,3.35,0,0,0-3.88,2.2,3.15,3.15,0,0,0,2.17,3.75,3.6,3.6,0,0,0,4.12-1.91A3.24,3.24,0,0,0,121.81,264.23Z" style="fill:#f5f5f5"></path><path d="M179.36,260.06a2.54,2.54,0,0,0-2.24-1.16,3.35,3.35,0,0,0-3.88,2.2,3.15,3.15,0,0,0,2.17,3.75,3.59,3.59,0,0,0,4.11-1.9A3.2,3.2,0,0,0,179.36,260.06Z" style="fill:#f5f5f5"></path><path d="M138.6,286.58a1.52,1.52,0,0,0-1.33-.69A2,2,0,0,0,135,287.2a1.89,1.89,0,0,0,1.29,2.23,2.15,2.15,0,0,0,2.45-1.14A1.88,1.88,0,0,0,138.6,286.58Z" style="fill:#f5f5f5"></path><path d="M166.55,274.32a1.52,1.52,0,0,0-1.33-.69,2,2,0,0,0-2.31,1.31,1.88,1.88,0,0,0,1.29,2.23,2.13,2.13,0,0,0,2.44-1.14A1.91,1.91,0,0,0,166.55,274.32Z" style="fill:#f5f5f5"></path><path d="M166.86,253.47a1.52,1.52,0,0,0-1.33-.69,2,2,0,0,0-2.31,1.31,1.88,1.88,0,0,0,1.29,2.23,2.15,2.15,0,0,0,2.45-1.13A1.9,1.9,0,0,0,166.86,253.47Z" style="fill:#f5f5f5"></path><path d="M125,254.9a1.52,1.52,0,0,0-1.33-.69,2,2,0,0,0-2.31,1.31,1.88,1.88,0,0,0,1.29,2.23,2.14,2.14,0,0,0,2.45-1.13A1.93,1.93,0,0,0,125,254.9Z" style="fill:#f5f5f5"></path><path d="M143.79,244.24a1.49,1.49,0,0,0-1.33-.68,2,2,0,0,0-2.31,1.31,1.87,1.87,0,0,0,1.29,2.22,2.14,2.14,0,0,0,2.45-1.13A1.93,1.93,0,0,0,143.79,244.24Z" style="fill:#f5f5f5"></path><path d="M128.2,270.42a.87.87,0,0,0-.78-.4,1.18,1.18,0,0,0-1.36.77,1.11,1.11,0,0,0,.76,1.31,1.26,1.26,0,0,0,1.44-.67A1.13,1.13,0,0,0,128.2,270.42Z" style="fill:#f5f5f5"></path><path d="M124.46,244.32a.87.87,0,0,0-.78-.4,1.17,1.17,0,0,0-1.36.77,1.1,1.1,0,0,0,.76,1.3,1.25,1.25,0,0,0,1.43-.66A1.09,1.09,0,0,0,124.46,244.32Z" style="fill:#f5f5f5"></path><path d="M154.23,291.36c-.18-.31-.42-.36-.78-.41a1.17,1.17,0,0,0-1.36.77,1.11,1.11,0,0,0,.76,1.31,1.26,1.26,0,0,0,1.44-.67A1.1,1.1,0,0,0,154.23,291.36Z" style="fill:#f5f5f5"></path><path d="M158.47,248.72c-.17-.3-.42-.36-.78-.4a1.17,1.17,0,0,0-1.35.76,1.09,1.09,0,0,0,.75,1.31,1.27,1.27,0,0,0,1.44-.66A1.12,1.12,0,0,0,158.47,248.72Z" style="fill:#f5f5f5"></path><path d="M161.45,271.73a.87.87,0,0,0-.78-.4,1.17,1.17,0,0,0-1.36.77,1.09,1.09,0,0,0,.76,1.3,1.27,1.27,0,0,0,1.44-.66A1.12,1.12,0,0,0,161.45,271.73Z" style="fill:#f5f5f5"></path><path d="M189.41,383.63c-.25.08-9.72-26.5-21.14-59.38s-20.49-59.6-20.24-59.69,9.72,26.5,21.15,59.38S189.66,383.54,189.41,383.63Z" style="fill:#263238"></path><path d="M147.92,284.46c-1.32.05-2.52-7.41-2.67-16.65s.8-16.76,2.13-16.81,2.52,7.41,2.67,16.65S149.25,284.42,147.92,284.46Z" style="fill:#ebebeb"></path><path d="M159.1,254.57c1,.79-3,7-9.36,13.38s-12.66,10.48-13.53,9.56,3.84-6.43,10.1-12.71S158.08,253.77,159.1,254.57Z" style="fill:#ebebeb"></path><path d="M164.77,266.91c0,1.27-7.4,2.37-16.49,2.46s-16.46-.86-16.45-2.13,7.39-2.37,16.49-2.47S164.78,265.64,164.77,266.91Z" style="fill:#ebebeb"></path><path d="M156.25,275.12c-.95.91-6.1-2.54-11.52-7.7s-9-10.08-8.1-11,6.09,2.54,11.51,7.7S157.19,274.21,156.25,275.12Z" style="fill:#ebebeb"></path><path d="M320,233.36a2.68,2.68,0,0,0-1.09-2.4,3.54,3.54,0,0,0-4.63-.76,3.27,3.27,0,0,0-.66,4.46,3.82,3.82,0,0,0,4.63,1.15A3.36,3.36,0,0,0,320,233.36Z" style="fill:#f5f5f5"></path><path d="M370,267.68a2.66,2.66,0,0,0-1.08-2.41,3.56,3.56,0,0,0-4.63-.76,3.27,3.27,0,0,0-.67,4.46,3.81,3.81,0,0,0,4.63,1.15A3.3,3.3,0,0,0,370,267.68Z" style="fill:#f5f5f5"></path><path d="M319.19,262.47c.09-.61-.19-1-.64-1.43a2.12,2.12,0,0,0-2.75-.45,2,2,0,0,0-.4,2.65,2.26,2.26,0,0,0,2.75.68A2,2,0,0,0,319.19,262.47Z" style="fill:#f5f5f5"></path><path d="M350.13,270.84a1.61,1.61,0,0,0-.65-1.43,2.11,2.11,0,0,0-2.75-.45,1.94,1.94,0,0,0-.39,2.65,2.27,2.27,0,0,0,2.75.68A2,2,0,0,0,350.13,270.84Z" style="fill:#f5f5f5"></path><path d="M364,254.16a1.6,1.6,0,0,0-.64-1.44,2.12,2.12,0,0,0-2.75-.45,1.94,1.94,0,0,0-.39,2.65,2.25,2.25,0,0,0,2.74.69A2,2,0,0,0,364,254.16Z" style="fill:#f5f5f5"></path><path d="M328.65,227.88c.09-.61-.19-1-.64-1.43a2.12,2.12,0,0,0-2.75-.45,1.94,1.94,0,0,0-.39,2.65,2.24,2.24,0,0,0,2.74.68A1.91,1.91,0,0,0,328.65,227.88Z" style="fill:#f5f5f5"></path><path d="M351.06,231.57a1.6,1.6,0,0,0-.65-1.43,2.12,2.12,0,0,0-2.75-.45,2,2,0,0,0-.39,2.65A2.26,2.26,0,0,0,350,233,1.94,1.94,0,0,0,351.06,231.57Z" style="fill:#f5f5f5"></path><path d="M321.18,242.57c.06-.36-.11-.57-.37-.84a1.24,1.24,0,0,0-1.62-.26A1.13,1.13,0,0,0,319,243a1.33,1.33,0,0,0,1.61.41A1.16,1.16,0,0,0,321.18,242.57Z" style="fill:#f5f5f5"></path><path d="M335.13,219c.06-.36-.11-.56-.37-.84a1.25,1.25,0,0,0-1.62-.26,1.14,1.14,0,0,0-.23,1.56,1.32,1.32,0,0,0,1.61.4A1.16,1.16,0,0,0,335.13,219Z" style="fill:#f5f5f5"></path><path d="M328.9,276.58c.06-.36-.11-.57-.37-.84a1.24,1.24,0,0,0-1.62-.27,1.14,1.14,0,0,0-.23,1.56,1.32,1.32,0,0,0,1.61.4A1.14,1.14,0,0,0,328.9,276.58Z" style="fill:#f5f5f5"></path><path d="M360.19,244.81a.92.92,0,0,0-.38-.84,1.23,1.23,0,0,0-1.61-.26,1.13,1.13,0,0,0-.23,1.55,1.32,1.32,0,0,0,1.61.4A1.12,1.12,0,0,0,360.19,244.81Z" style="fill:#f5f5f5"></path><path d="M347.63,265.4c.05-.36-.11-.56-.38-.84a1.24,1.24,0,0,0-1.61-.26,1.15,1.15,0,0,0-.24,1.56,1.34,1.34,0,0,0,1.62.4A1.16,1.16,0,0,0,347.63,265.4Z" style="fill:#f5f5f5"></path><path d="M297.61,374.37c-.26-.1,9.3-27.84,21.36-61.95s22.06-61.71,22.32-61.61-9.31,27.83-21.37,62S297.87,374.47,297.61,374.37Z" style="fill:#263238"></path><path d="M328.22,266.86c-1.12-.83,2.77-7.65,8.67-15.24s11.59-13.06,12.71-12.23-2.77,7.66-8.67,15.24S329.34,267.69,328.22,266.86Z" style="fill:#ebebeb"></path><path d="M356.89,250c.31,1.29-7,3.71-16.41,4.7s-17.23.21-17.34-1.11,7.35-2.69,16.58-3.68S356.58,248.64,356.89,250Z" style="fill:#ebebeb"></path><path d="M353.5,263.67c-.84,1-7.62-2.92-15.15-8.8s-13-11.48-12.11-12.5,7.62,2.92,15.15,8.8S354.34,262.65,353.5,263.67Z" style="fill:#ebebeb"></path><path d="M341.15,264.74c-1.37.12-3.36-6.05-4.44-13.77s-.85-14.1.52-14.22,3.35,6.05,4.43,13.78S342.51,264.62,341.15,264.74Z" style="fill:#ebebeb"></path><path d="M265.37,203.29l-2.58-1.1-.18,3.94a1.53,1.53,0,0,0,2.08.06C265.76,205.26,265.37,203.29,265.37,203.29Z" style="fill:#ffbf9d"></path><path d="M139.38,446.71c-1.59-18.75-3.84-59.91,1.33-77L373.17,371c2.81,22.95,3.09,46.85,1,74.48-.5,6.72-5.33,12.59-12.42,15-31.56,10.8-123,35.83-211.64,0C144,458,139.88,452.69,139.38,446.71Z" style="fill:#FF81AE"></path><g style="opacity:0.8"><path d="M139.38,446.71c-1.59-18.75-3.84-59.91,1.33-77L373.17,371c2.81,22.95,3.09,46.85,1,74.48-.5,6.72-5.33,12.59-12.42,15-31.56,10.8-123,35.83-211.64,0C144,458,139.88,452.69,139.38,446.71Z" style="fill:#fff"></path></g><path d="M373.17,371.57c0,12.11-53.63,28.52-118,28.52s-115-16.41-115-28.52,52.14-21.92,116.46-21.92S373.17,359.47,373.17,371.57Z" style="fill:#FF81AE"></path><g style="opacity:0.6000000000000001"><path d="M373.17,371.57c0,12.11-53.63,28.52-118,28.52s-115-16.41-115-28.52,52.14-21.92,116.46-21.92S373.17,359.47,373.17,371.57Z" style="fill:#fff"></path></g><path d="M312.2,431.35c-17-2-35.34-15.31-52.44-15.07-25.87.36-46.22,23-72,21.19C168,436.08,152,424.71,137.5,411.25l.52,16.16c14.48,13.46,29.91,18.53,49.63,19.91,25.82,1.81,48.65-19,74.52-19.36,17.1-.24,32.65,13.34,49.63,15.38,24.29,2.92,51-5.84,63.79-26.69V400.09C362.79,420.94,336.49,434.27,312.2,431.35Z" style="fill:#FF81AE"></path><g style="opacity:0.4"><path d="M312.2,431.35c-17-2-35.34-15.31-52.44-15.07-25.87.36-46.22,23-72,21.19C168,436.08,152,424.71,137.5,411.25l.52,16.16c14.48,13.46,29.91,18.53,49.63,19.91,25.82,1.81,48.65-19,74.52-19.36,17.1-.24,32.65,13.34,49.63,15.38,24.29,2.92,51-5.84,63.79-26.69V400.09C362.79,420.94,336.49,434.27,312.2,431.35Z" style="fill:#fff"></path></g><path d="M186.91,414.59l1,2a.85.85,0,0,0,.64.47l2.19.31a.85.85,0,0,1,.47,1.45l-1.59,1.54a.85.85,0,0,0-.24.75l.37,2.19a.84.84,0,0,1-1.22.89l-2-1a.85.85,0,0,0-.79,0l-2,1a.85.85,0,0,1-1.23-.89l.38-2.19a.88.88,0,0,0-.25-.75l-1.59-1.54a.85.85,0,0,1,.47-1.45l2.2-.31a.85.85,0,0,0,.63-.47l1-2A.85.85,0,0,1,186.91,414.59Z" style="fill:#fff"></path><path d="M262.07,436.41l1,2a.83.83,0,0,0,.63.46l2.2.32a.85.85,0,0,1,.47,1.44l-1.59,1.55a.83.83,0,0,0-.24.75l.37,2.18a.85.85,0,0,1-1.23.89l-2-1a.85.85,0,0,0-.79,0l-2,1a.84.84,0,0,1-1.22-.89l.37-2.18a.83.83,0,0,0-.24-.75l-1.59-1.55a.85.85,0,0,1,.47-1.44l2.19-.32a.83.83,0,0,0,.64-.46l1-2A.85.85,0,0,1,262.07,436.41Z" style="fill:#fff"></path><path d="M307.63,450.82l.54,1.08a.42.42,0,0,0,.34.25l1.2.18a.45.45,0,0,1,.25.78l-.86.85a.42.42,0,0,0-.13.4l.2,1.19a.46.46,0,0,1-.67.49l-1.07-.56a.45.45,0,0,0-.42,0l-1.07.56a.46.46,0,0,1-.67-.49l.2-1.19a.42.42,0,0,0-.13-.4l-.86-.85a.45.45,0,0,1,.25-.78l1.2-.18a.42.42,0,0,0,.34-.25l.54-1.08A.46.46,0,0,1,307.63,450.82Z" style="fill:#fff"></path><path d="M357.27,400.68l.54,1.08a.42.42,0,0,0,.34.25l1.2.18a.45.45,0,0,1,.25.78l-.86.84a.45.45,0,0,0-.13.41l.2,1.19a.47.47,0,0,1-.67.49l-1.07-.56a.42.42,0,0,0-.43,0l-1.06.56a.46.46,0,0,1-.67-.49l.2-1.19a.45.45,0,0,0-.13-.41l-.87-.84a.46.46,0,0,1,.26-.78l1.19-.18a.45.45,0,0,0,.35-.25l.54-1.08A.46.46,0,0,1,357.27,400.68Z" style="fill:#fff"></path><path d="M170.11,402.45l.53,1.08a.48.48,0,0,0,.35.25l1.2.17a.47.47,0,0,1,.25.79l-.86.84a.49.49,0,0,0-.14.41l.21,1.19a.47.47,0,0,1-.67.49l-1.07-.57a.47.47,0,0,0-.43,0l-1.07.57a.46.46,0,0,1-.66-.49L168,406a.45.45,0,0,0-.13-.41l-.87-.84a.47.47,0,0,1,.26-.79l1.19-.17a.48.48,0,0,0,.35-.25l.53-1.08A.46.46,0,0,1,170.11,402.45Z" style="fill:#fff"></path><path d="M319.15,417.42l.54,1.09a.46.46,0,0,0,.34.25l1.2.17a.47.47,0,0,1,.26.79l-.87.84a.45.45,0,0,0-.13.41l.2,1.19a.46.46,0,0,1-.67.48l-1.06-.56a.47.47,0,0,0-.43,0l-1.07.56a.46.46,0,0,1-.67-.48L317,421a.45.45,0,0,0-.13-.41l-.86-.84a.46.46,0,0,1,.25-.79l1.2-.17a.44.44,0,0,0,.34-.25l.54-1.09A.46.46,0,0,1,319.15,417.42Z" style="fill:#fff"></path><path d="M332.86,407.65l1,2a.83.83,0,0,0,.63.46l2.2.32a.85.85,0,0,1,.47,1.44l-1.59,1.55a.83.83,0,0,0-.24.75l.37,2.18a.85.85,0,0,1-1.23.89l-2-1a.85.85,0,0,0-.79,0l-2,1a.84.84,0,0,1-1.22-.89l.37-2.18a.83.83,0,0,0-.24-.75l-1.59-1.55a.85.85,0,0,1,.47-1.44l2.19-.32a.83.83,0,0,0,.64-.46l1-2A.85.85,0,0,1,332.86,407.65Z" style="fill:#fff"></path><path d="M192,391.05h-.54l-1.55-.1c-1.34-.1-3.28-.3-5.66-.65a95.18,95.18,0,0,1-27.71-8.73,63.57,63.57,0,0,1-7.37-4.16,20.43,20.43,0,0,1-4.27-3.78,11.35,11.35,0,0,1-.92-1.26c-.19-.3-.28-.46-.26-.47s.44.6,1.33,1.59a21.72,21.72,0,0,0,4.33,3.61,67.56,67.56,0,0,0,7.37,4,101.2,101.2,0,0,0,9.49,4,104.84,104.84,0,0,0,18.07,4.79c2.37.39,4.29.65,5.62.81l1.54.19A1.81,1.81,0,0,1,192,391.05Z" style="fill:#fff"></path><path d="M301.58,394a10.24,10.24,0,0,1-1.71.46c-1.1.27-2.72.61-4.72,1a137.11,137.11,0,0,1-31.68,2.06c-2-.11-3.68-.23-4.81-.36a11.78,11.78,0,0,1-1.75-.23,11.35,11.35,0,0,1,1.77,0c1.13.06,2.77.13,4.8.19,4.06.13,9.68.14,15.86-.26s11.74-1.14,15.75-1.79c2-.33,3.63-.61,4.74-.82A12.5,12.5,0,0,1,301.58,394Z" style="fill:#fff"></path><path d="M168.72,365.43c-1.22-14.55-3.29-46.67.68-60H348.11c2.15,17.81,2.28,37.59.7,59-.39,5.22-4.09,9.77-9.53,11.65-24.21,8.39-94.37,27.81-162.31,0A12.89,12.89,0,0,1,168.72,365.43Z" style="fill:#FF81AE"></path><g style="opacity:0.8"><path d="M168.72,365.43c-1.22-14.55-3.29-46.67.68-60H348.11c2.15,17.81,2.28,37.59.7,59-.39,5.22-4.09,9.77-9.53,11.65-24.21,8.39-94.37,27.81-162.31,0A12.89,12.89,0,0,1,168.72,365.43Z" style="fill:#fff"></path></g><ellipse cx="258.71" cy="305.46" rx="89.31" ry="16.11" style="fill:#FF81AE"></ellipse><g style="opacity:0.6000000000000001"><ellipse cx="258.71" cy="305.46" rx="89.31" ry="16.11" style="fill:#fff"></ellipse></g><path d="M312.2,301.17c0,2.84-22,5.14-49.07,5.14s-49.06-2.3-49.06-5.14S236,296,263.13,296,312.2,298.33,312.2,301.17Z" style="fill:#263238"></path><path d="M302.19,348.09c-13.11-1.57-27.3-11.83-40.51-11.65-20,.28-35.72,17.77-55.66,16.37-15.24-1.07-27.75-9.95-38.94-20.35,0,4.76.12,9.18.34,12.63,11.19,10.4,23.31,14.27,38.55,15.34,19.94,1.4,37.58-14.69,57.57-15,13.21-.19,25.23,10.31,38.35,11.88,18.76,2.26,38.1-3.19,48-19.3l-.27-13.91C339.72,340.25,321,350.34,302.19,348.09Z" style="fill:#FF81AE"></path><g style="opacity:0.4"><path d="M302.19,348.09c-13.11-1.57-27.3-11.83-40.51-11.65-20,.28-35.72,17.77-55.66,16.37-15.24-1.07-27.75-9.95-38.94-20.35,0,4.76.12,9.18.34,12.63,11.19,10.4,23.31,14.27,38.55,15.34,19.94,1.4,37.58-14.69,57.57-15,13.21-.19,25.23,10.31,38.35,11.88,18.76,2.26,38.1-3.19,48-19.3l-.27-13.91C339.72,340.25,321,350.34,302.19,348.09Z" style="fill:#fff"></path></g><path d="M251.48,355.65l.54,1.08a.44.44,0,0,0,.34.25l1.2.18a.46.46,0,0,1,.26.78l-.87.84a.45.45,0,0,0-.13.41l.2,1.19a.46.46,0,0,1-.67.49l-1.06-.56a.47.47,0,0,0-.43,0l-1.07.56a.46.46,0,0,1-.67-.49l.2-1.19a.45.45,0,0,0-.13-.41l-.86-.84a.45.45,0,0,1,.25-.78l1.2-.18a.42.42,0,0,0,.34-.25l.54-1.08A.46.46,0,0,1,251.48,355.65Z" style="fill:#fff"></path><path d="M297.62,332.26l.53,1.08a.45.45,0,0,0,.35.25l1.2.18a.46.46,0,0,1,.25.78l-.86.85a.46.46,0,0,0-.14.4l.21,1.19a.46.46,0,0,1-.67.49l-1.07-.56a.47.47,0,0,0-.43,0l-1.07.56a.46.46,0,0,1-.66-.49l.2-1.19a.42.42,0,0,0-.13-.4l-.87-.85a.46.46,0,0,1,.26-.78l1.19-.18a.45.45,0,0,0,.35-.25l.53-1.08A.47.47,0,0,1,297.62,332.26Z" style="fill:#fff"></path><path d="M195.79,327.75l.53,1.09a.48.48,0,0,0,.35.25l1.19.17a.47.47,0,0,1,.26.79l-.87.84a.51.51,0,0,0-.13.41l.21,1.19a.46.46,0,0,1-.67.48l-1.07-.56a.47.47,0,0,0-.43,0l-1.07.56a.46.46,0,0,1-.67-.48l.21-1.19a.51.51,0,0,0-.13-.41l-.87-.84a.47.47,0,0,1,.26-.79l1.19-.17a.48.48,0,0,0,.35-.25l.53-1.09A.47.47,0,0,1,195.79,327.75Z" style="fill:#fff"></path><path d="M262.78,352.51l1,2a.85.85,0,0,0,.64.46l2.19.32a.84.84,0,0,1,.47,1.44l-1.59,1.55a.85.85,0,0,0-.24.75l.38,2.19a.85.85,0,0,1-1.23.89l-2-1a.91.91,0,0,0-.79,0l-2,1a.85.85,0,0,1-1.23-.89l.38-2.19a.88.88,0,0,0-.25-.75L257,356.72a.84.84,0,0,1,.46-1.44l2.2-.32a.83.83,0,0,0,.63-.46l1-2A.85.85,0,0,1,262.78,352.51Z" style="fill:#fff"></path><path d="M318.66,328.74l1,2a.89.89,0,0,0,.64.46l2.19.32a.84.84,0,0,1,.47,1.44l-1.58,1.55a.82.82,0,0,0-.25.74l.38,2.19a.85.85,0,0,1-1.23.89l-2-1a.85.85,0,0,0-.79,0l-2,1a.85.85,0,0,1-1.23-.89l.38-2.19a.85.85,0,0,0-.25-.74L312.87,333a.84.84,0,0,1,.47-1.44l2.19-.32a.89.89,0,0,0,.64-.46l1-2A.84.84,0,0,1,318.66,328.74Z" style="fill:#fff"></path><path d="M213.58,331.36l1,2a.83.83,0,0,0,.63.46l2.2.32a.85.85,0,0,1,.47,1.44l-1.59,1.55a.83.83,0,0,0-.24.75l.37,2.18a.85.85,0,0,1-1.23.89l-2-1a.83.83,0,0,0-.78,0l-2,1a.84.84,0,0,1-1.22-.89l.37-2.18a.83.83,0,0,0-.24-.75l-1.59-1.55a.85.85,0,0,1,.47-1.44l2.19-.32a.83.83,0,0,0,.64-.46l1-2A.85.85,0,0,1,213.58,331.36Z" style="fill:#fff"></path><path d="M251.75,160.64c-6.12-7.18-12.54-13.82-17.17-18.24-1.55,8.53-3.25,16.93-3.93,25.67a31.44,31.44,0,0,0,21.1-7.43" style="fill:#FF81AE"></path><path d="M231.68,144l-.1,0a.27.27,0,0,1-.11-.36,2.48,2.48,0,0,1,3.69-.78.27.27,0,0,1,0,.37.26.26,0,0,1-.36,0,2,2,0,0,0-1.6-.36,2,2,0,0,0-1.31,1A.25.25,0,0,1,231.68,144Z" style="fill:#FF81AE"></path><path d="M231.71,144.46h-.08a.69.69,0,0,1-.28-.08.75.75,0,0,1-.37-.45.78.78,0,0,1,.05-.58,3,3,0,0,1,2-1.5,3,3,0,0,1,2.43.56.76.76,0,1,1-.93,1.2,1.44,1.44,0,0,0-2.15.46A.77.77,0,0,1,231.71,144.46Zm-.22-.88h0Z" style="fill:#FF81AE"></path><path d="M234.52,142.87a.26.26,0,0,1-.19-.12,3.82,3.82,0,0,0-3.5-1.76.26.26,0,0,1,0-.52,4.35,4.35,0,0,1,4,2,.25.25,0,0,1-.09.36A.29.29,0,0,1,234.52,142.87Z" style="fill:#FF81AE"></path><path d="M234.55,143.37h-.07a.78.78,0,0,1-.58-.36,3.3,3.3,0,0,0-3-1.52.77.77,0,0,1-.56-.18.8.8,0,0,1-.27-.52.78.78,0,0,1,.18-.55.76.76,0,0,1,.52-.27,4.84,4.84,0,0,1,4.44,2.24.77.77,0,0,1,.1.57.75.75,0,0,1-.74.59Z" style="fill:#FF81AE"></path><path d="M234.87,143.07h0a.27.27,0,0,1-.23-.29,3.82,3.82,0,0,1,2.27-3,.26.26,0,0,1,.34.14.25.25,0,0,1-.14.34,3.28,3.28,0,0,0-1.95,2.59A.26.26,0,0,1,234.87,143.07Z" style="fill:#FF81AE"></path><path d="M234.89,143.57h-.07l-.11,0h0a.68.68,0,0,1-.41-.26.71.71,0,0,1-.16-.56,4.28,4.28,0,0,1,2.57-3.41.73.73,0,0,1,.58,0,.79.79,0,0,1,.42.42.78.78,0,0,1,0,.58.72.72,0,0,1-.41.41,2.72,2.72,0,0,0-1.64,2.17A.77.77,0,0,1,234.89,143.57Zm2.21-3.34h0Z" style="fill:#FF81AE"></path><path d="M234.72,143.05a.23.23,0,0,1-.18-.09.27.27,0,0,1,0-.37,3.16,3.16,0,0,1,3.24-.48.26.26,0,0,1,.13.34.27.27,0,0,1-.35.13,2.64,2.64,0,0,0-2.69.42A.25.25,0,0,1,234.72,143.05Z" style="fill:#FF81AE"></path><path d="M234.75,143.55h-.08a.77.77,0,0,1-.52-.28.77.77,0,0,1,.11-1.06,3.67,3.67,0,0,1,3.76-.56.77.77,0,0,1,.38,1,.76.76,0,0,1-1,.38,2.12,2.12,0,0,0-2.17.34A.78.78,0,0,1,234.75,143.55Z" style="fill:#FF81AE"></path><path d="M234.51,142.75h-.06a.26.26,0,0,1-.16-.34,2.44,2.44,0,0,0-.27-2,5.08,5.08,0,0,0-1.56-1.54.26.26,0,1,1,.29-.43,5.7,5.7,0,0,1,1.72,1.71,3,3,0,0,1,.31,2.45A.26.26,0,0,1,234.51,142.75Z" style="fill:#FF81AE"></path><path d="M234.54,143.25h-.07l-.19,0a.76.76,0,0,1-.46-1,1.91,1.91,0,0,0-.23-1.58,4.59,4.59,0,0,0-1.42-1.39A.76.76,0,0,1,233,138a6.07,6.07,0,0,1,1.86,1.86,3.46,3.46,0,0,1,.35,2.88A.76.76,0,0,1,234.54,143.25Z" style="fill:#FF81AE"></path><polygon points="237.45 145.2 233.07 150.64 232.46 154.14 238.8 146.55 237.45 145.2" style="fill:#fff"></polygon><polygon points="240.64 148.46 231.63 159.4 231.18 162.84 241.99 149.82 240.64 148.46" style="fill:#fff"></polygon><polygon points="244.21 152.18 230.81 167 230.36 170.43 245.56 153.54 244.21 152.18" style="fill:#fff"></polygon><polygon points="247.2 155.34 233.79 170.15 233.34 173.59 248.55 156.7 247.2 155.34" style="fill:#fff"></polygon><path d="M251.75,160.64a2,2,0,0,1-.31.3c-.22.19-.53.48-1,.82a29.64,29.64,0,0,1-3.93,2.61,31.34,31.34,0,0,1-15.9,3.94h-.25v-.25c.32-4.33,1-9.07,1.8-14,.7-4.13,1.46-8.08,2.13-11.7l.08-.45.33.31c5.27,5.07,9.51,9.7,12.46,13,1.47,1.66,2.61,3,3.39,3.94l.87,1.07a2.61,2.61,0,0,1,.28.39,2.54,2.54,0,0,1-.35-.33l-.93-1L247,155.44c-3-3.26-7.29-7.83-12.57-12.86l.41-.13c-.65,3.62-1.4,7.57-2.1,11.7-.83,4.91-1.49,9.62-1.83,13.93l-.23-.25a31.84,31.84,0,0,0,15.75-3.71,35.3,35.3,0,0,0,4-2.49c.44-.31.77-.58,1-.75A1.72,1.72,0,0,1,251.75,160.64Z" style="fill:#263238"></path><path d="M269.32,169.29a16.26,16.26,0,0,1,5.49,14c-.29,2.52-1.1,5.38.47,7.37s4.75,2,6.23,4.07c1.74,2.39.07,5.78.61,8.68a5.85,5.85,0,0,0,6.05,4.59,22.87,22.87,0,0,1-11.51,4.47q-1.5-2.1-3-4.19c1.15,1.47.74,3.72-.48,5.13a9.55,9.55,0,0,1-4.84,2.62,29,29,0,0,1-25.23-5.13" style="fill:#263238"></path><path d="M220.91,189.75c.71-1.91,1.84-3.67,2.35-5.64,1.08-4.25-.81-9.16,1.42-12.93,1.59-2.69,4.79-3.91,7.81-4.71s6.25-1.45,8.56-3.55c1.69-1.54,2.71-3.72,4.4-5.26,2.4-2.21,5.85-2.85,9.11-2.92a19.62,19.62,0,0,1,9.74,2,10.72,10.72,0,0,1,5.74,7.79c.2,1.62-.07,3.3.38,4.87.49,1.73,1.78,3.11,2.54,4.74a8.59,8.59,0,0,1-2.55,10.2l-24.12,28.73c-4.89,1.62-16.48-1-20.06-4.75S219.12,194.58,220.91,189.75Z" style="fill:#263238"></path><path d="M270,180.53c-.68-6.76-5.48-14.91-12.21-13.95l-20.9,6.12a4,4,0,0,0-3.41,4.16l4.15,50.79-.15,0s5.31,14.18,19.1,9.31c2.74-1,3.89-4,4.33-7.16H261c0-.37,0-.71,0-1.07a33,33,0,0,0-.16-7h0c-.1-4.11-.16-5.79-.16-5.75s8.61-1.76,10-13.13C271.33,197.25,270.7,188.05,270,180.53Z" style="fill:#ffbf9d"></path><path d="M251.91,190.9a1.45,1.45,0,0,1-1.34,1.52,1.4,1.4,0,0,1-1.55-1.25,1.46,1.46,0,0,1,1.35-1.52A1.39,1.39,0,0,1,251.91,190.9Z" style="fill:#263238"></path><path d="M266.14,189.7a1.45,1.45,0,0,1-1.34,1.51,1.38,1.38,0,0,1-1.55-1.25,1.45,1.45,0,0,1,1.34-1.51A1.38,1.38,0,0,1,266.14,189.7Z" style="fill:#263238"></path><path d="M268.73,185.57c-.17.26-1.48-.64-3.18-.46s-2.81,1.29-3,1.06.05-.54.54-1.06a3.84,3.84,0,0,1,4.95-.48C268.58,185,268.81,185.46,268.73,185.57Z" style="fill:#263238"></path><path d="M253,186.76c-.2.23-1.49-.78-3.3-.77s-3.14,1-3.34.74.11-.54.69-1a4.37,4.37,0,0,1,2.67-.88,4.21,4.21,0,0,1,2.63.91C252.94,186.22,253.13,186.65,253,186.76Z" style="fill:#263238"></path><path d="M258.9,197.62a10.28,10.28,0,0,1,2.51-.55c.4-.06.77-.15.83-.42a2.07,2.07,0,0,0-.31-1.18l-1.29-3c-1.8-4.26-3.11-7.77-2.94-7.84s1.77,3.32,3.56,7.58l1.25,3a2.37,2.37,0,0,1,.26,1.56,1,1,0,0,1-.63.6,2.71,2.71,0,0,1-.68.12A10.27,10.27,0,0,1,258.9,197.62Z" style="fill:#263238"></path><path d="M260.66,216a28.79,28.79,0,0,1-15.29-3.48s4,7.63,15.24,6.15Z" style="fill:#ff9a6c"></path><path d="M253.09,181.45c-.13.43-1.7.29-3.52.58s-3.28.84-3.54.47c-.12-.18.13-.59.71-1a6.22,6.22,0,0,1,5.38-.8C252.8,180.93,253.15,181.25,253.09,181.45Z" style="fill:#263238"></path><path d="M267.46,178.93c-.3.37-1.54,0-3,.08s-2.71.34-3,0c-.13-.17.06-.54.59-.89a4.92,4.92,0,0,1,4.87,0C267.41,178.39,267.6,178.75,267.46,178.93Z" style="fill:#263238"></path><path d="M232.21,174.14c1.11-1.56,3-2.31,4.82-2.93a104.23,104.23,0,0,1,24.13-5.14c.95,1.72-.08,4-1.67,5.12s-3.57,1.57-5.43,2.18-3.79,1.6-4.62,3.38-.29,4.19-1.08,6.13c-1.35,3.33-6.1,4.23-7.43,7.56-1,2.53.37,5.31.63,8a9.7,9.7,0,0,1-10,10.66q-.25-14.56-.53-29.12C231,178,231.05,175.79,232.21,174.14Z" style="fill:#263238"></path><path d="M211.73,197.84c1.58-1.32,3.55-2.43,4.24-4.36,1-2.82-1.16-6.27.42-8.82,1.44-2.32,5.4-2,6.75-4.41,1.06-1.86,0-3.58.44-5.23s2.85-3,4.54-2.74L240.59,192c1,6.48,2.07,9.95.54,13.66a30.39,30.39,0,0,0-2.29,6.17c-.38,2.17.08,4.66,1.81,6-7.94.31-15.18-4.13-21.88-8.4l-7.08-4.52a5.37,5.37,0,0,1-1.92-1.74C208.77,201.36,210.15,199.15,211.73,197.84Z" style="fill:#263238"></path><path d="M218.65,207.47a3.66,3.66,0,0,0,.84.2,7.06,7.06,0,0,0,2.47-.08,7.4,7.4,0,0,0,6-6.25,7.87,7.87,0,0,0-.14-3,12.94,12.94,0,0,0-1.35-3,11.49,11.49,0,0,1-1.4-3.11,3.89,3.89,0,0,1,.56-3.33c.76-.94,2.1-1.12,3.36-1.57a3.71,3.71,0,0,0,1.74-1.19,3.51,3.51,0,0,0,.62-2,22.5,22.5,0,0,0-.73-4.15,4.58,4.58,0,0,1,.06-2,2.88,2.88,0,0,1,1.21-1.56,7.81,7.81,0,0,1,4-.91,8.7,8.7,0,0,0,4.13-1,7.77,7.77,0,0,0,2.91-2.92,12.53,12.53,0,0,0,1.17-3.75,18.15,18.15,0,0,1,.92-3.52,8,8,0,0,1,2-2.73,8.9,8.9,0,0,1,10.43-1,10.91,10.91,0,0,1,2.95,2.44,13.85,13.85,0,0,1,1.78,2.78s0-.08-.07-.21a5,5,0,0,0-.25-.59,9.53,9.53,0,0,0-1.32-2.09,10.53,10.53,0,0,0-3-2.55,9.15,9.15,0,0,0-10.81,1,8.28,8.28,0,0,0-2.09,2.86,17.36,17.36,0,0,0-1,3.6,12.53,12.53,0,0,1-1.15,3.62,7.31,7.31,0,0,1-2.75,2.74,8.22,8.22,0,0,1-3.92,1,8.24,8.24,0,0,0-4.27,1,3.28,3.28,0,0,0-1.4,1.81,5.1,5.1,0,0,0-.08,2.23,22.33,22.33,0,0,1,.74,4.07,3.08,3.08,0,0,1-.53,1.8,3.14,3.14,0,0,1-1.53,1c-.6.23-1.25.38-1.87.61a3.76,3.76,0,0,0-1.67,1.11,4.3,4.3,0,0,0-.62,3.69,11.61,11.61,0,0,0,1.45,3.21,12,12,0,0,1,1.34,2.9,7.39,7.39,0,0,1,.16,2.91,7.24,7.24,0,0,1-2.29,4.38,7.51,7.51,0,0,1-3.38,1.74A8.48,8.48,0,0,1,218.65,207.47Z" style="fill:#455a64"></path><path d="M209.11,193.88a1.66,1.66,0,0,0-.29.64,2.83,2.83,0,0,0,.26,2,3,3,0,0,0,1,1.1,3.09,3.09,0,0,0,1.68.52,3.94,3.94,0,0,0,3.55-2.06,5.43,5.43,0,0,0,.66-2.39,7.42,7.42,0,0,0-.46-2.64c-.56-1.73-1.63-3.44-1.58-5.45a3.67,3.67,0,0,1,1-2.68,4,4,0,0,1,2.91-.78,9.89,9.89,0,0,0,3.44-.22,3,3,0,0,0,1.45-1.13,4.2,4.2,0,0,0,.65-1.72,13.72,13.72,0,0,0-.15-3.53,7.69,7.69,0,0,1,.32-3.25,8.22,8.22,0,0,1,3.87-4.69,11.61,11.61,0,0,1,5.53-1,16.15,16.15,0,0,0,5-.6,10.33,10.33,0,0,0,3.63-2.09,10.09,10.09,0,0,0,2-2.41,7.48,7.48,0,0,0,1-2.47,14.21,14.21,0,0,1-1.19,2.37,10.5,10.5,0,0,1-2.06,2.32,10.19,10.19,0,0,1-3.56,2,15.7,15.7,0,0,1-4.94.52,12,12,0,0,0-5.73,1,8.58,8.58,0,0,0-4.1,4.92,7.93,7.93,0,0,0-.34,3.43,14,14,0,0,1,.15,3.41,3,3,0,0,1-1.81,2.5,9.6,9.6,0,0,1-3.27.2,4.36,4.36,0,0,0-3.22.91,4.06,4.06,0,0,0-1.15,3,7.69,7.69,0,0,0,.61,3c.34.91.74,1.76,1,2.61a7,7,0,0,1,.46,2.5,4.91,4.91,0,0,1-.59,2.24,3.65,3.65,0,0,1-3.26,2,2.77,2.77,0,0,1-2.49-1.44,2.83,2.83,0,0,1-.33-1.87A6.27,6.27,0,0,1,209.11,193.88Z" style="fill:#263238"></path><path d="M291.81,201.45a3.11,3.11,0,0,1-.1,2.07,2.78,2.78,0,0,1-1.71,1.6,2.9,2.9,0,0,1-2.88-.91,2.69,2.69,0,0,1-.61-1.68,5.48,5.48,0,0,1,.38-2c.47-1.33,1.39-2.75,1.33-4.5a6.4,6.4,0,0,0-2.23-4.67,7.41,7.41,0,0,0-2.41-1.39,11.16,11.16,0,0,0-2.8-.52,15,15,0,0,1-2.73-.39,3.6,3.6,0,0,1-2.07-1.41,4.48,4.48,0,0,1-.68-2.37,9,9,0,0,1,.3-2.43,18.32,18.32,0,0,0,.89-4.6,6.89,6.89,0,0,0-1.26-3.9,9,9,0,0,0-2.49-2.28,17,17,0,0,1-2-1.5,5.37,5.37,0,0,1-1.23-1.72s0,0,0,.14a1.71,1.71,0,0,0,.14.39,4.1,4.1,0,0,0,.93,1.31,15.17,15.17,0,0,0,2,1.59,9,9,0,0,1,2.37,2.26,6.61,6.61,0,0,1,1.15,3.71,18.2,18.2,0,0,1-.92,4.5,9.61,9.61,0,0,0-.33,2.54,4.86,4.86,0,0,0,.74,2.61,4.08,4.08,0,0,0,2.33,1.6,15.74,15.74,0,0,0,2.81.41,11.23,11.23,0,0,1,2.69.49,7.13,7.13,0,0,1,2.27,1.31,6,6,0,0,1,2.09,4.33c.08,1.6-.77,3-1.26,4.36a6.1,6.1,0,0,0-.38,2.13,2.94,2.94,0,0,0,.73,1.88,3.13,3.13,0,0,0,3.19,1,2.91,2.91,0,0,0,1.8-1.79A2.84,2.84,0,0,0,292,202,1.46,1.46,0,0,0,291.81,201.45Z" style="fill:#263238"></path><path d="M238.11,196.24a1.53,1.53,0,0,0-.37,0,5.82,5.82,0,0,0-1.08.12,7.09,7.09,0,0,0-3.46,1.91,6.69,6.69,0,0,0-1.5,2.33,6.78,6.78,0,0,0-.34,3.17A6.89,6.89,0,0,0,232.7,207a6.11,6.11,0,0,0,3.13,2.12,6.58,6.58,0,0,0,3.78,0,6,6,0,0,0,2.92-2,7,7,0,0,0,1.46-5.62,7.84,7.84,0,0,0-1.66-3.6,7.4,7.4,0,0,0-.74-.78c-.19-.16-.29-.24-.3-.22s.36.37.9,1.11a8.17,8.17,0,0,1,1.48,3.54,6.72,6.72,0,0,1-1.47,5.3,5.63,5.63,0,0,1-2.72,1.81,6.29,6.29,0,0,1-3.52,0,5.73,5.73,0,0,1-2.9-2,6.56,6.56,0,0,1-1.28-3,6.19,6.19,0,0,1,1.65-5.21,7.26,7.26,0,0,1,3.28-2C237.59,196.29,238.11,196.29,238.11,196.24Z" style="fill:#fff"></path><path d="M268.9,209.26a2.48,2.48,0,0,0,.86.19,6.51,6.51,0,0,0,2.4-.2,7.27,7.27,0,0,0,3.12-1.75,7.07,7.07,0,0,0-.89-10.93,6.47,6.47,0,0,0-2.19-1,2.39,2.39,0,0,0-.87-.12,9.86,9.86,0,0,1,2.87,1.39,7.23,7.23,0,0,1,2.15,2.63A7,7,0,0,1,275,207.2a7.46,7.46,0,0,1-2.92,1.74A9.76,9.76,0,0,1,268.9,209.26Z" style="fill:#fff"></path><path d="M241.14,196.25a8,8,0,0,0-.57-1.18c-.2-.37-.44-.82-.69-1.36s-.56-1.14-.84-1.84a42.15,42.15,0,0,1-1.76-4.93,41.6,41.6,0,0,1-1.58-12.69,44.12,44.12,0,0,1,.5-5.22c.1-.74.26-1.4.37-2s.23-1.09.33-1.49a6.82,6.82,0,0,0,.26-1.28,7.3,7.3,0,0,0-.43,1.23,12.93,12.93,0,0,0-.41,1.48c-.14.58-.32,1.24-.44,2a37.76,37.76,0,0,0-.6,5.26,41.48,41.48,0,0,0,.26,6.48,42.48,42.48,0,0,0,1.33,6.35,37.58,37.58,0,0,0,1.88,4.95c.29.69.63,1.29.9,1.82s.53,1,.76,1.33A6.78,6.78,0,0,0,241.14,196.25Z" style="fill:#FF81AE"></path><path d="M260.32,201.42l-.37-.34c-1.08-.33-2.07-.79-3.15-1.11a1.83,1.83,0,0,0-1-.12,1.41,1.41,0,0,0-.8.58,2.67,2.67,0,0,0,.24,3.28,2.84,2.84,0,0,0,5-2.29Z" style="fill:#ff9a6c"></path><path d="M259.18,204.34s-.11.18-.42.34a2.46,2.46,0,0,1-1.44.18,3.88,3.88,0,0,1-1.95-.93,2.39,2.39,0,0,1-.7-1.13,3.15,3.15,0,0,1,0-1.4,5.85,5.85,0,0,1,.44-1.3.94.94,0,0,1,.54-.55,1.13,1.13,0,0,1,.71.08l2,.7a8.19,8.19,0,0,1,1.78.75,9.32,9.32,0,0,1-1.87-.47l-2-.61c-.4-.15-.59-.12-.75.27a5.54,5.54,0,0,0-.4,1.21,2.23,2.23,0,0,0,.57,2.17,3.76,3.76,0,0,0,1.73.92,2.7,2.7,0,0,0,1.33,0C259,204.43,259.15,204.31,259.18,204.34Z" style="fill:#263238"></path><polygon points="162.86 140.76 193.86 175.32 222.31 211.25 210.25 228.44 180.76 187.25 155.34 148.96 162.86 140.76" style="fill:#ffbf9d"></polygon><path d="M161.77,125.54a2.39,2.39,0,0,1,0,2.07,7.39,7.39,0,0,0-.76,4.06c.37,2.33.88,7,2,9.3l-7.51,8.2s-11.9-2-17.06-2c-5.55-.09-6.34-1.9-4.28-2.72s9.19-1.49,9.19-1.49-10.56-3.07-10.21-5.83c.25-2,1.81-1.28,5.17-.07a14.47,14.47,0,0,0,6.86.54s-10-5.75-9.41-7.91,2.52-1.09,4.7,0c1.43.69,4.11,2.47,5.91,3.15a2.41,2.41,0,0,0,1.8-.07s-6.73-6.43-5.4-7.92,1.79-.52,3.51,1c1.92,1.73,5.85,4.85,7.67,5.15a13.56,13.56,0,0,0,3.74-.46s.23-4,2.27-5.31C160.91,124.5,161.47,124.94,161.77,125.54Z" style="fill:#ffbf9d"></path><path d="M156,142.41a6.07,6.07,0,0,1-.94-1.87,7.31,7.31,0,0,1-.19-5,4.8,4.8,0,0,1,.71-1.3l.72-1.1.67-1a2.36,2.36,0,0,0,.32-.91,6.53,6.53,0,0,1,.46-2,14.06,14.06,0,0,1-.13,2.07,2.6,2.6,0,0,1-.32,1.07l-.64,1-.71,1.13a4.68,4.68,0,0,0-.64,1.19,7.62,7.62,0,0,0,.07,4.76A17.21,17.21,0,0,1,156,142.41Z" style="fill:#ff9a6c"></path><path d="M288.58,219.23s14.57,23.83,16.84,29.71,3.15,9.15,2.15,12.56-6.08,8.58-15.11,2.71c-5.26-3.42-21.63-28.51-21.63-28.51l13.31-.65L277,219.63Z" style="fill:#ffbf9d"></path><path d="M292.16,255.55a4.36,4.36,0,0,1-.55-.91c-.33-.6-.75-1.49-1.26-2.6-1-2.22-2.28-5.34-3.58-8.82s-2.39-6.66-3.15-9c-.38-1.16-.67-2.1-.86-2.75a3.77,3.77,0,0,1-.24-1,5,5,0,0,1,.43,1l1,2.7c.89,2.4,2,5.49,3.29,8.91s2.51,6.61,3.43,8.86S292.23,255.51,292.16,255.55Z" style="fill:#ff9a6c"></path><path d="M283.12,273.93c1.29,10.22,9,19.94,10.93,31.23,0,0-11.74,1.8-33.24,1.94-14.22.1-33.05-2.33-33.05-2.33l5.42-24.26a14.56,14.56,0,0,0-.85-8.72l-5.67-13.29-9.81-17.71-8.09-10.22,14.54-20.81,12.64,12.32s17.41,5.14,22.05,5c2.85-.08,3-3.33,3-3.33,2.92-.21,6.77-.91,9.92.05A31.29,31.29,0,0,1,282.58,231l2.22,5.81-3.46,5.64h0a18.88,18.88,0,0,1,2.52,6.91,41.67,41.67,0,0,1,.62,5.92C284.37,257.48,283.12,273.93,283.12,273.93Z" style="fill:#FF81AE"></path><path d="M278.29,270.08c.08.11-5.16,4-11.71,8.71s-11.92,8.43-12,8.33,5.17-4,11.72-8.71S278.22,270,278.29,270.08Z" style="fill:#263238"></path><path d="M234.12,242.62c-.07,0,.2-1,.43-2.68a25.19,25.19,0,0,0,0-6.49,24.69,24.69,0,0,0-1.69-6.26c-.64-1.54-1.17-2.44-1.1-2.48s.19.19.45.59a16,16,0,0,1,1,1.75A21.43,21.43,0,0,1,234.88,240a14.33,14.33,0,0,1-.48,1.94C234.25,242.39,234.16,242.63,234.12,242.62Z" style="fill:#263238"></path><path d="M264.89,264.09a31.11,31.11,0,0,1,.75-3.06c.47-1.88,1.05-4.49,1.49-7.42s.64-5.59.73-7.53a30.55,30.55,0,0,1,.17-3.14,3.44,3.44,0,0,1,.1.84c0,.55.05,1.34,0,2.31a55,55,0,0,1-.61,7.59,57,57,0,0,1-1.62,7.43c-.28.94-.52,1.69-.71,2.2A3.07,3.07,0,0,1,264.89,264.09Z" style="fill:#263238"></path><g style="opacity:0.30000000000000004"><path d="M265.1,263.47a52.67,52.67,0,0,0-3.48,14.42c2.54-4.86,5.1-9.76,6.55-15.05s1.75-11-.22-16.17a63.08,63.08,0,0,1-2.85,16.8"></path></g><path d="M273.43,201.27s-.94-2.15,1.42-2.05a17.07,17.07,0,0,1,3.43.41s.76-2.13,2.41-2.21,2.21,1.73,2.21,1.73a2.2,2.2,0,0,1,2.8-.93,2.32,2.32,0,0,1,.95,1.33c.26.93.64,2.32.64,2.32a5.63,5.63,0,0,1,2,2.44c.75,1.71-.14,5.82-.14,5.82l-.6,10.22H277.4L274,212.69l2.45-5.15Z" style="fill:#ffbf9d"></path><path d="M278,205.26c-.13.09-.93-1.24-1-3.13a2.45,2.45,0,0,1,.11-.71,4.54,4.54,0,0,1,.24-.59,6.66,6.66,0,0,1,.53-.91c.33-.48.58-.75.64-.71s-.08.37-.33.9c-.12.26-.27.57-.4.91-.07.18-.13.36-.19.55a2.07,2.07,0,0,0-.08.57C277.59,203.85,278.11,205.21,278,205.26Z" style="fill:#ff9a6c"></path><path d="M281.61,207.12c0,.07-.54-.21-1-.93a4.17,4.17,0,0,1-.61-1.37,3.91,3.91,0,0,1,.24-1.84,8,8,0,0,1,2.48-3.8,41.58,41.58,0,0,0-2,4,3.74,3.74,0,0,0-.25,1.59,4.86,4.86,0,0,0,.45,1.27C281.29,206.73,281.64,207.06,281.61,207.12Z" style="fill:#ff9a6c"></path><path d="M284.62,208.43c-.05,0-.37-.32-.69-1a3.5,3.5,0,0,1,0-3,8,8,0,0,1,.92-1.39,3.18,3.18,0,0,1,1.05-.92c.75-.38,1.3-.15,1.26-.09a3.69,3.69,0,0,0-1.08.4,3.52,3.52,0,0,0-.84.9,10.82,10.82,0,0,0-.85,1.33,3.55,3.55,0,0,0-.13,2.68C284.49,208,284.69,208.39,284.62,208.43Z" style="fill:#ff9a6c"></path><path d="M288.82,206.85s-.14.13-.45.14a1.48,1.48,0,0,1-1.15-.56l.38-.18a3.69,3.69,0,0,1,0,2.17,3.3,3.3,0,0,1-.33.75,1.17,1.17,0,0,1-.7.49,1.73,1.73,0,0,1-1.25-.38c-.56-.43-.78-.8-.73-.85s.37.23.92.53a1.5,1.5,0,0,0,.95.23c.3-.07.51-.44.64-.92a3.91,3.91,0,0,0,.06-1.91l-.28-1.19.66,1a1.38,1.38,0,0,0,.83.56C288.65,206.81,288.81,206.8,288.82,206.85Z" style="fill:#ff9a6c"></path><path d="M283.05,218.15s.25-5.51-6.44-7.8l-1.89-3.27a4.14,4.14,0,0,0-3.82-2.72.8.8,0,0,0-.93.72c-.13.85,1.84,1.74,1.91,2.71a21.54,21.54,0,0,0,1.64,5.15c.68,1.41,3.88,7.41,3.88,7.41" style="fill:#ffbf9d"></path><path d="M277.4,220.35a7.47,7.47,0,0,1-.76-1.24c-.49-.9-1.14-2.06-1.91-3.46-.4-.75-.83-1.56-1.3-2.42a19.79,19.79,0,0,1-1.18-2.94c-.17-.53-.34-1.08-.48-1.66-.06-.27-.12-.62-.15-.88a1.45,1.45,0,0,0-.39-.63,14.2,14.2,0,0,1-1.31-1.35,1.11,1.11,0,0,1-.21-.56,1.09,1.09,0,0,1,.15-.6,1.05,1.05,0,0,1,1.08-.51h0l.56,0a4.24,4.24,0,0,1,2.19,1A4.68,4.68,0,0,1,275,207l0,0,1.87,3.28-.12-.11a11.25,11.25,0,0,1,3.85,2.23,8.09,8.09,0,0,1,2,2.83,7.11,7.11,0,0,1,.54,2.17,1.75,1.75,0,0,1,0,.79,9.51,9.51,0,0,0-.78-2.85,7.94,7.94,0,0,0-2-2.65,10.81,10.81,0,0,0-3.74-2.07l-.08,0,0-.08-1.91-3.26v-.05a3.88,3.88,0,0,0-3.09-2.5l-.5,0h0a.54.54,0,0,0-.55.25.53.53,0,0,0,0,.62c.31.44.83.82,1.25,1.29a1.78,1.78,0,0,1,.51.89,6.81,6.81,0,0,0,.15.85c.12.56.28,1.1.44,1.62a20.52,20.52,0,0,0,1.12,2.91c.44.87.85,1.68,1.24,2.43l1.76,3.54A8.18,8.18,0,0,1,277.4,220.35Z" style="fill:#ff9a6c"></path><path d="M274.32,207.05l27.49,15.19a5.31,5.31,0,0,0,5.62-.73c1.78-1.42,1.52-4.77.65-5.92s-3.52-2.21-4.8-1.15l-.3,2.62s2.29-.17,2.56.94a.86.86,0,0,1-.47.93,2.24,2.24,0,0,1-2.48,0l-2.44-1.51-24.57-13.52a12,12,0,0,0-1.55,1.26C274.08,205.3,274.32,207.05,274.32,207.05Z" style="fill:#455a64"></path><path d="M268.85,202.88c.17.14,5.47,4.17,5.47,4.17l1.64-2.93-6-3.32S268.23,202.33,268.85,202.88Z" style="fill:#fff"></path><polygon points="277.19 208.61 278.57 205.58 279.67 206.18 278.26 209.23 277.19 208.61" style="fill:#fff"></polygon><polygon points="280.45 210.44 281.88 207.4 282.96 207.99 281.55 211.04 280.45 210.44" style="fill:#fff"></polygon><polygon points="283.23 212.01 284.65 208.97 285.73 209.56 284.32 212.61 283.23 212.01" style="fill:#fff"></polygon><polygon points="286 213.58 287.42 210.53 288.5 211.13 287.09 214.18 286 213.58" style="fill:#fff"></polygon><polygon points="288.76 215.15 290.19 212.1 291.27 212.7 289.86 215.75 288.76 215.15" style="fill:#fff"></polygon><polygon points="291.54 216.63 292.97 213.58 294.05 214.18 292.64 217.23 291.54 216.63" style="fill:#fff"></polygon><polygon points="294.41 218.19 295.83 215.15 296.91 215.74 295.5 218.79 294.41 218.19" style="fill:#fff"></polygon><polygon points="297.26 219.73 298.68 216.69 299.76 217.28 298.35 220.34 297.26 219.73" style="fill:#fff"></polygon><polygon points="300.02 221.26 301.45 218.21 302.53 218.81 301.12 221.86 300.02 221.26" style="fill:#fff"></polygon><polygon points="303.36 222.69 303.21 219.33 304.45 219.36 304.6 222.72 303.36 222.69" style="fill:#fff"></polygon><polygon points="307.3 221.57 304.59 219.33 305.39 218.58 308.14 220.65 307.3 221.57" style="fill:#fff"></polygon><polygon points="308.83 217.18 305.71 218.42 305.12 217.33 308.45 215.99 308.83 217.18" style="fill:#fff"></polygon><polygon points="305.41 213.91 304.95 217.24 303.73 217 304.14 213.98 305.41 213.91" style="fill:#fff"></polygon><path d="M276,204.12a6,6,0,0,1,.67.31l1.86,1,6.88,3.7,10.35,5.64,3,1.65,1.57.86,1.56,1,.79.48a2,2,0,0,0,.78.32,1.94,1.94,0,0,0,1.58-.37c.48-.33.33-.87-.21-1.1a4.15,4.15,0,0,0-1.81-.24h-.3l0-.3c.09-.82.19-1.72.29-2.61v-.11l.08-.07a2.87,2.87,0,0,1,2.42-.4,5.27,5.27,0,0,1,2.25,1.07,2.67,2.67,0,0,1,.78,1,4.76,4.76,0,0,1,.35,1.15,6.57,6.57,0,0,1,0,2.34,4.11,4.11,0,0,1-1,2.1,5.93,5.93,0,0,1-2,1.19,5.54,5.54,0,0,1-4.34-.29l-3.57-2-12.35-6.89-8.3-4.68-2.25-1.3-.57-.35c-.13-.08-.2-.12-.19-.13s.07,0,.21.09l.6.3,2.3,1.21,8.38,4.54,12.4,6.78,3.58,2a5,5,0,0,0,3.93.25,5.23,5.23,0,0,0,1.76-1.08,3.53,3.53,0,0,0,.91-1.83,6,6,0,0,0,0-2.15,2.82,2.82,0,0,0-.95-1.82,5,5,0,0,0-2-1,2.41,2.41,0,0,0-2,.3l.1-.17c-.11.9-.21,1.79-.3,2.62l-.27-.29a4.7,4.7,0,0,1,2,.3,1.28,1.28,0,0,1,.77.87,1.07,1.07,0,0,1-.45,1.08,2.46,2.46,0,0,1-2,.47,2.71,2.71,0,0,1-.94-.39l-.79-.49-1.55-1-1.56-.87-3-1.67-10.28-5.73-6.81-3.84-1.82-1A4.84,4.84,0,0,1,276,204.12Z" style="fill:#263238"></path><path d="M273.34,199.88l-1.13,3.31s1.39,1.61,2.55.34a5.7,5.7,0,0,0,1.2-2.62Z" style="fill:#ffbf9d"></path><path d="M276,200.68a3.65,3.65,0,0,1-1,2.78,2.11,2.11,0,0,1-1.07.65,1.52,1.52,0,0,1-1-.13c-.56-.3-.58-.76-.52-.75s.22.28.66.41a1.5,1.5,0,0,0,1.59-.54A21.51,21.51,0,0,0,276,200.68Z" style="fill:#ff9a6c"></path><path d="M213.16,281.2a.18.18,0,0,0-.15-.12c-.09,0-.12.1-.14.18a6.42,6.42,0,0,1-1.34,2.33,16.35,16.35,0,0,0-1.64,2.18,3.5,3.5,0,0,0-.6,2.57,2.37,2.37,0,0,0,2.09,1.66,2.49,2.49,0,0,0,1.7-.36,3,3,0,0,0,.85-1.15A7.85,7.85,0,0,0,213.16,281.2Z" style="fill:#FF81AE"></path><g style="opacity:0.5"><path d="M213.25,285.27a.76.76,0,0,0-.51-.56c-.34-.08-.67.19-.92.45a5,5,0,0,0-1.2,1.93,3.83,3.83,0,0,0,0,2.61,2.91,2.91,0,0,0,1.85-1.33,5.47,5.47,0,0,0,.77-2.27A2.11,2.11,0,0,0,213.25,285.27Z" style="fill:#fff"></path></g><path d="M210.34,293.85a6.5,6.5,0,0,1,.82-5.77l.75.48a5.64,5.64,0,0,0-.72,5Z" style="fill:#263238"></path><path d="M210.55,293h1.23a2.68,2.68,0,0,1,2.68,2.68v19.41a0,0,0,0,1,0,0h-6.59a0,0,0,0,1,0,0V295.65A2.68,2.68,0,0,1,210.55,293Z" style="fill:#FF81AE"></path><path d="M214.41,313.57a39,39,0,0,1-6.48-6.19,19.79,19.79,0,0,1,3.42,2.91A18.84,18.84,0,0,1,214.41,313.57Z" style="fill:#fff"></path><path d="M214.41,308.54a18.92,18.92,0,0,1-3.42-2.9,19.7,19.7,0,0,1-3.06-3.28,18.92,18.92,0,0,1,3.42,2.9A19.7,19.7,0,0,1,214.41,308.54Z" style="fill:#fff"></path><path d="M214.41,303.52a18.92,18.92,0,0,1-3.42-2.9,19.7,19.7,0,0,1-3.06-3.28,18.92,18.92,0,0,1,3.42,2.9A19.7,19.7,0,0,1,214.41,303.52Z" style="fill:#fff"></path><path d="M214.41,298.5a28.43,28.43,0,0,1-5.55-5.26,27.7,27.7,0,0,1,5.55,5.26Z" style="fill:#fff"></path><path d="M243.38,283.83c0-.06-.09-.12-.16-.11s-.12.1-.13.17a6.54,6.54,0,0,1-1.34,2.34,14.89,14.89,0,0,0-1.64,2.17,3.53,3.53,0,0,0-.6,2.58,2.35,2.35,0,0,0,2.09,1.65,2.49,2.49,0,0,0,1.7-.36,3.28,3.28,0,0,0,.85-1.14A7.86,7.86,0,0,0,243.38,283.83Z" style="fill:#FF81AE"></path><g style="opacity:0.30000000000000004"><path d="M243.38,283.83c0-.06-.09-.12-.16-.11s-.12.1-.13.17a6.54,6.54,0,0,1-1.34,2.34,14.89,14.89,0,0,0-1.64,2.17,3.53,3.53,0,0,0-.6,2.58,2.35,2.35,0,0,0,2.09,1.65,2.49,2.49,0,0,0,1.7-.36,3.28,3.28,0,0,0,.85-1.14A7.86,7.86,0,0,0,243.38,283.83Z"></path></g><path d="M243.47,287.91a.77.77,0,0,0-.52-.57c-.34-.08-.66.19-.91.46a5.07,5.07,0,0,0-1.2,1.92,3.83,3.83,0,0,0,0,2.61,2.91,2.91,0,0,0,1.85-1.33,5.62,5.62,0,0,0,.77-2.27A2.25,2.25,0,0,0,243.47,287.91Z" style="fill:#FF81AE"></path><path d="M240.56,296.48a6.41,6.41,0,0,1,.82-5.76l.75.47a5.64,5.64,0,0,0-.72,5Z" style="fill:#263238"></path><path d="M240.77,295.6H242a2.68,2.68,0,0,1,2.68,2.68v19.41a0,0,0,0,1,0,0h-6.59a0,0,0,0,1,0,0V298.28a2.68,2.68,0,0,1,2.68-2.68Z" style="fill:#455a64"></path><path d="M244.63,316.2a19.79,19.79,0,0,1-3.42-2.91,19.26,19.26,0,0,1-3.06-3.28,19.79,19.79,0,0,1,3.42,2.91A18.84,18.84,0,0,1,244.63,316.2Z" style="fill:#fff"></path><path d="M244.63,311.18a39,39,0,0,1-6.48-6.19,20,20,0,0,1,3.42,2.9A19.09,19.09,0,0,1,244.63,311.18Z" style="fill:#fff"></path><path d="M244.63,306.15a18.92,18.92,0,0,1-3.42-2.9,19.7,19.7,0,0,1-3.06-3.28,18.92,18.92,0,0,1,3.42,2.9A19.7,19.7,0,0,1,244.63,306.15Z" style="fill:#fff"></path><path d="M244.63,301.13a27.7,27.7,0,0,1-5.55-5.26,14.75,14.75,0,0,1,2.95,2.44A14.41,14.41,0,0,1,244.63,301.13Z" style="fill:#fff"></path><path d="M308.06,279.24c0-.05-.09-.12-.16-.11s-.12.1-.14.17a6.4,6.4,0,0,1-1.34,2.34,15.64,15.64,0,0,0-1.64,2.17,3.52,3.52,0,0,0-.59,2.58,2.34,2.34,0,0,0,2.09,1.65,2.46,2.46,0,0,0,1.69-.36,3,3,0,0,0,.85-1.14A7.89,7.89,0,0,0,308.06,279.24Z" style="fill:#FF81AE"></path><g style="opacity:0.5"><path d="M308.14,283.32a.76.76,0,0,0-.51-.57,1.09,1.09,0,0,0-.92.46,5.07,5.07,0,0,0-1.2,1.92,3.83,3.83,0,0,0,0,2.61,2.88,2.88,0,0,0,1.85-1.33,5.47,5.47,0,0,0,.77-2.27A2.05,2.05,0,0,0,308.14,283.32Z" style="fill:#fff"></path></g><path d="M305.23,291.9a6.47,6.47,0,0,1,.83-5.77l.74.47a5.64,5.64,0,0,0-.72,5Z" style="fill:#263238"></path><path d="M305.45,291h1.23a2.68,2.68,0,0,1,2.68,2.68v19.41a0,0,0,0,1,0,0h-6.59a0,0,0,0,1,0,0V293.7A2.68,2.68,0,0,1,305.45,291Z" style="fill:#FF81AE"></path><path d="M309.3,311.61a19.79,19.79,0,0,1-3.42-2.91,19,19,0,0,1-3.05-3.28,20.4,20.4,0,0,1,3.41,2.91A19.7,19.7,0,0,1,309.3,311.61Z" style="fill:#fff"></path><path d="M309.3,306.59a19.79,19.79,0,0,1-3.42-2.91,19.43,19.43,0,0,1-3.05-3.28,20.4,20.4,0,0,1,3.41,2.91A18.84,18.84,0,0,1,309.3,306.59Z" style="fill:#fff"></path><path d="M309.3,301.57a38.45,38.45,0,0,1-6.47-6.19,20.61,20.61,0,0,1,3.41,2.9A19.09,19.09,0,0,1,309.3,301.57Z" style="fill:#fff"></path><path d="M309.3,296.54a14,14,0,0,1-2.95-2.44,13.8,13.8,0,0,1-2.6-2.82,27.7,27.7,0,0,1,5.55,5.26Z" style="fill:#fff"></path><path d="M276.79,283.42c0-.06-.08-.13-.15-.12s-.12.1-.14.18a6.44,6.44,0,0,1-1.34,2.33,16.26,16.26,0,0,0-1.64,2.17,3.47,3.47,0,0,0-.59,2.58,2.36,2.36,0,0,0,2.08,1.66,2.47,2.47,0,0,0,1.7-.36,3,3,0,0,0,.85-1.15A7.84,7.84,0,0,0,276.79,283.42Z" style="fill:#FF81AE"></path><g style="opacity:0.30000000000000004"><path d="M276.79,283.42c0-.06-.08-.13-.15-.12s-.12.1-.14.18a6.44,6.44,0,0,1-1.34,2.33,16.26,16.26,0,0,0-1.64,2.17,3.47,3.47,0,0,0-.59,2.58,2.36,2.36,0,0,0,2.08,1.66,2.47,2.47,0,0,0,1.7-.36,3,3,0,0,0,.85-1.15A7.84,7.84,0,0,0,276.79,283.42Z"></path></g><path d="M276.88,287.49a.75.75,0,0,0-.51-.56c-.34-.08-.67.19-.92.45a5,5,0,0,0-1.2,1.93,3.83,3.83,0,0,0,0,2.61,2.93,2.93,0,0,0,1.85-1.34,5.47,5.47,0,0,0,.77-2.27A2.06,2.06,0,0,0,276.88,287.49Z" style="fill:#FF81AE"></path><path d="M274.2,295.78A6.46,6.46,0,0,1,275,290l.75.47a5.64,5.64,0,0,0-.72,5Z" style="fill:#263238"></path><path d="M274.41,294.9h1.23a2.68,2.68,0,0,1,2.68,2.68V317a0,0,0,0,1,0,0h-6.59a0,0,0,0,1,0,0V297.58A2.68,2.68,0,0,1,274.41,294.9Z" style="fill:#455a64"></path><path d="M278.27,315.49a20,20,0,0,1-3.42-2.9,19.09,19.09,0,0,1-3.06-3.29,39,39,0,0,1,6.48,6.19Z" style="fill:#fff"></path><path d="M278.27,310.47a19.79,19.79,0,0,1-3.42-2.91,18.84,18.84,0,0,1-3.06-3.28,19.79,19.79,0,0,1,3.42,2.91A19.26,19.26,0,0,1,278.27,310.47Z" style="fill:#fff"></path><path d="M278.27,305.45a39,39,0,0,1-6.48-6.19,19.79,19.79,0,0,1,3.42,2.91A18.84,18.84,0,0,1,278.27,305.45Z" style="fill:#fff"></path><path d="M278.27,300.43a14.31,14.31,0,0,1-2.95-2.45,13.8,13.8,0,0,1-2.6-2.82,14.45,14.45,0,0,1,2.95,2.44A14,14,0,0,1,278.27,300.43Z" style="fill:#fff"></path><path d="M332.58,272.05c0-.06-.09-.12-.16-.11s-.12.1-.14.17a6.37,6.37,0,0,1-1.33,2.34,14.89,14.89,0,0,0-1.64,2.17,3.53,3.53,0,0,0-.6,2.58,2.35,2.35,0,0,0,2.09,1.65,2.49,2.49,0,0,0,1.7-.36,3.28,3.28,0,0,0,.85-1.14A7.86,7.86,0,0,0,332.58,272.05Z" style="fill:#FF81AE"></path><g style="opacity:0.5"><path d="M332.66,276.13a.74.74,0,0,0-.51-.57,1.07,1.07,0,0,0-.91.46,5.09,5.09,0,0,0-1.21,1.92,3.89,3.89,0,0,0,0,2.61,2.91,2.91,0,0,0,1.85-1.33,5.62,5.62,0,0,0,.77-2.27A2.05,2.05,0,0,0,332.66,276.13Z" style="fill:#fff"></path></g><path d="M329.75,284.71a6.46,6.46,0,0,1,.83-5.77l.75.47a5.64,5.64,0,0,0-.72,5Z" style="fill:#263238"></path><path d="M330,283.83h1.23a2.68,2.68,0,0,1,2.68,2.68v19.41a0,0,0,0,1,0,0h-6.59a0,0,0,0,1,0,0V286.51A2.68,2.68,0,0,1,330,283.83Z" style="fill:#455a64"></path><path d="M333.83,304.42a19.79,19.79,0,0,1-3.42-2.91,18.84,18.84,0,0,1-3.06-3.28,19.79,19.79,0,0,1,3.42,2.91A19.26,19.26,0,0,1,333.83,304.42Z" style="fill:#fff"></path><path d="M333.83,299.4a39,39,0,0,1-6.48-6.19,19.79,19.79,0,0,1,3.42,2.91A18.84,18.84,0,0,1,333.83,299.4Z" style="fill:#fff"></path><path d="M333.83,294.37a18.92,18.92,0,0,1-3.42-2.9,19.7,19.7,0,0,1-3.06-3.28,18.92,18.92,0,0,1,3.42,2.9A19.7,19.7,0,0,1,333.83,294.37Z" style="fill:#fff"></path><path d="M333.83,289.35a27.7,27.7,0,0,1-5.55-5.26,14.75,14.75,0,0,1,3,2.44A14.41,14.41,0,0,1,333.83,289.35Z" style="fill:#fff"></path><path d="M191.82,270.87c0-.06-.09-.12-.16-.12s-.12.1-.14.18a6.25,6.25,0,0,1-1.33,2.33,15.54,15.54,0,0,0-1.64,2.18A3.5,3.5,0,0,0,188,278a2.37,2.37,0,0,0,2.09,1.66,2.44,2.44,0,0,0,1.69-.36,3.14,3.14,0,0,0,.86-1.15A7.85,7.85,0,0,0,191.82,270.87Z" style="fill:#FF81AE"></path><g style="opacity:0.5"><path d="M191.9,274.94a.75.75,0,0,0-.51-.56c-.34-.08-.66.19-.91.45a5.05,5.05,0,0,0-1.21,1.93,3.89,3.89,0,0,0,0,2.61,2.9,2.9,0,0,0,1.86-1.33,5.62,5.62,0,0,0,.77-2.27A2.11,2.11,0,0,0,191.9,274.94Z" style="fill:#fff"></path></g><path d="M189,283.52a6.47,6.47,0,0,1,.83-5.77l.74.47a5.69,5.69,0,0,0-.71,5Z" style="fill:#263238"></path><path d="M189.21,282.64h1.23a2.68,2.68,0,0,1,2.68,2.68v19.41a0,0,0,0,1,0,0h-6.59a0,0,0,0,1,0,0V285.32A2.68,2.68,0,0,1,189.21,282.64Z" style="fill:#FF81AE"></path><path d="M193.07,303.24a39,39,0,0,1-6.48-6.19A20,20,0,0,1,190,300,19.09,19.09,0,0,1,193.07,303.24Z" style="fill:#fff"></path><path d="M193.07,298.21a18.92,18.92,0,0,1-3.42-2.9,19.7,19.7,0,0,1-3.06-3.28,18.92,18.92,0,0,1,3.42,2.9A19.7,19.7,0,0,1,193.07,298.21Z" style="fill:#fff"></path><path d="M193.07,293.19a18.92,18.92,0,0,1-3.42-2.9,19.7,19.7,0,0,1-3.06-3.28,18.92,18.92,0,0,1,3.42,2.9A19.7,19.7,0,0,1,193.07,293.19Z" style="fill:#fff"></path><path d="M193.07,288.17a14.24,14.24,0,0,1-3-2.44,14.8,14.8,0,0,1-2.6-2.82,14,14,0,0,1,3,2.44A14.47,14.47,0,0,1,193.07,288.17Z" style="fill:#fff"></path><path d="M158.51,341s-.08-.11-.15-.11-.11.09-.13.17a5.73,5.73,0,0,1-1.23,2.15,14.37,14.37,0,0,0-1.51,2,3.19,3.19,0,0,0-.55,2.38,2.16,2.16,0,0,0,1.92,1.53,2.31,2.31,0,0,0,1.57-.33,3,3,0,0,0,.79-1.06A7.28,7.28,0,0,0,158.51,341Z" style="fill:#FF81AE"></path><g style="opacity:0.5"><path d="M158.58,344.78a.66.66,0,0,0-.47-.52c-.31-.07-.61.17-.84.42a4.66,4.66,0,0,0-1.11,1.78,3.53,3.53,0,0,0,0,2.4,2.7,2.7,0,0,0,1.71-1.23,5,5,0,0,0,.71-2.09A1.94,1.94,0,0,0,158.58,344.78Z" style="fill:#fff"></path></g><path d="M155.9,352.69a6,6,0,0,1,.76-5.32l.69.44a5.19,5.19,0,0,0-.66,4.65Z" style="fill:#263238"></path><path d="M156.31,351.88H157a2.68,2.68,0,0,1,2.68,2.68v17.7a0,0,0,0,1,0,0h-6.08a0,0,0,0,1,0,0v-17.7A2.68,2.68,0,0,1,156.31,351.88Z" style="fill:#FF81AE"></path><path d="M159.66,370.88a16.4,16.4,0,0,1-3.17-2.66,17,17,0,0,1-2.81-3,16,16,0,0,1,3.17,2.66A17,17,0,0,1,159.66,370.88Z" style="fill:#fff"></path><path d="M159.66,366.25a16.7,16.7,0,0,1-3.17-2.67,16.25,16.25,0,0,1-2.81-3,16.7,16.7,0,0,1,3.17,2.67A16.6,16.6,0,0,1,159.66,366.25Z" style="fill:#fff"></path><path d="M159.66,361.62a16.7,16.7,0,0,1-3.17-2.67,17,17,0,0,1-2.81-3,32.34,32.34,0,0,1,6,5.71Z" style="fill:#fff"></path><path d="M159.66,357a11.6,11.6,0,0,1-2.74-2.24,12.65,12.65,0,0,1-2.39-2.61,12.08,12.08,0,0,1,2.75,2.24A12.41,12.41,0,0,1,159.66,357Z" style="fill:#fff"></path><path d="M358.57,340.14c0-.06-.08-.12-.15-.11s-.11.09-.13.16a5.85,5.85,0,0,1-1.23,2.16,14.57,14.57,0,0,0-1.51,2,3.18,3.18,0,0,0-.55,2.38,2.15,2.15,0,0,0,1.93,1.52,2.24,2.24,0,0,0,1.56-.33,2.81,2.81,0,0,0,.79-1.05A7.25,7.25,0,0,0,358.57,340.14Z" style="fill:#FF81AE"></path><g style="opacity:0.5"><path d="M358.65,343.89a.72.72,0,0,0-.48-.52c-.31-.07-.61.18-.84.42a4.66,4.66,0,0,0-1.11,1.78,3.56,3.56,0,0,0,0,2.41,2.7,2.7,0,0,0,1.71-1.23,5.14,5.14,0,0,0,.71-2.1A2.16,2.16,0,0,0,358.65,343.89Z" style="fill:#fff"></path></g><path d="M356,351.81a6,6,0,0,1,.76-5.32l.69.43a5.19,5.19,0,0,0-.66,4.65Z" style="fill:#263238"></path><path d="M356.37,351h.72a2.68,2.68,0,0,1,2.68,2.68v17.7a0,0,0,0,1,0,0h-6.08a0,0,0,0,1,0,0v-17.7A2.68,2.68,0,0,1,356.37,351Z" style="fill:#455a64"></path><path d="M359.72,370a16.7,16.7,0,0,1-3.17-2.67,16.25,16.25,0,0,1-2.81-3,33.24,33.24,0,0,1,6,5.71Z" style="fill:#fff"></path><path d="M359.72,365.37a16.7,16.7,0,0,1-3.17-2.67,17,17,0,0,1-2.81-3,32.34,32.34,0,0,1,6,5.71Z" style="fill:#fff"></path><path d="M359.72,360.73a32.34,32.34,0,0,1-6-5.71,16.7,16.7,0,0,1,3.17,2.67A17,17,0,0,1,359.72,360.73Z" style="fill:#fff"></path><path d="M359.72,356.1a12.25,12.25,0,0,1-2.74-2.24,11.74,11.74,0,0,1-2.38-2.62,12.77,12.77,0,0,1,2.74,2.24A12.05,12.05,0,0,1,359.72,356.1Z" style="fill:#fff"></path><path d="M180.62,354.75c0-.05-.08-.11-.14-.1s-.11.09-.13.16a5.87,5.87,0,0,1-1.23,2.15,13.89,13.89,0,0,0-1.51,2,3.24,3.24,0,0,0-.56,2.38,2.19,2.19,0,0,0,1.93,1.52,2.25,2.25,0,0,0,1.57-.33,2.92,2.92,0,0,0,.78-1.06A7.22,7.22,0,0,0,180.62,354.75Z" style="fill:#FF81AE"></path><g style="opacity:0.5"><path d="M180.7,358.51a.69.69,0,0,0-.47-.52c-.31-.07-.61.18-.85.42a4.91,4.91,0,0,0-1.11,1.78,3.56,3.56,0,0,0,0,2.41,2.69,2.69,0,0,0,1.71-1.23,5.14,5.14,0,0,0,.71-2.1A1.77,1.77,0,0,0,180.7,358.51Z" style="fill:#fff"></path></g><path d="M178,366.43a6,6,0,0,1,.76-5.33l.69.44a5.23,5.23,0,0,0-.67,4.65Z" style="fill:#263238"></path><path d="M178.42,365.62h.72a2.68,2.68,0,0,1,2.68,2.68V386a0,0,0,0,1,0,0h-6.08a0,0,0,0,1,0,0V368.3A2.68,2.68,0,0,1,178.42,365.62Z" style="fill:#455a64"></path><path d="M181.78,384.62a16.7,16.7,0,0,1-3.17-2.67,17,17,0,0,1-2.81-3,16.86,16.86,0,0,1,3.17,2.66A16.47,16.47,0,0,1,181.78,384.62Z" style="fill:#fff"></path><path d="M181.78,380a16.4,16.4,0,0,1-3.17-2.66,17,17,0,0,1-2.81-3,16,16,0,0,1,3.17,2.66A17,17,0,0,1,181.78,380Z" style="fill:#fff"></path><path d="M181.78,375.35a16.7,16.7,0,0,1-3.17-2.67,16.25,16.25,0,0,1-2.81-3,33.24,33.24,0,0,1,6,5.71Z" style="fill:#fff"></path><path d="M181.78,370.72a12.25,12.25,0,0,1-2.74-2.24,12,12,0,0,1-2.39-2.62,12.25,12.25,0,0,1,2.74,2.24A12,12,0,0,1,181.78,370.72Z" style="fill:#fff"></path><path d="M309.06,360.14c0-.06-.08-.12-.15-.11s-.1.09-.12.16a5.9,5.9,0,0,1-1.24,2.15,15.29,15.29,0,0,0-1.51,2,3.28,3.28,0,0,0-.55,2.38,2.17,2.17,0,0,0,1.93,1.52,2.24,2.24,0,0,0,1.56-.33,2.81,2.81,0,0,0,.79-1.05A7.25,7.25,0,0,0,309.06,360.14Z" style="fill:#FF81AE"></path><g style="opacity:0.5"><path d="M309.14,363.89a.73.73,0,0,0-.47-.52c-.32-.07-.62.18-.85.42a4.66,4.66,0,0,0-1.11,1.78,3.56,3.56,0,0,0,0,2.41,2.68,2.68,0,0,0,1.71-1.23,5.14,5.14,0,0,0,.71-2.1A1.94,1.94,0,0,0,309.14,363.89Z" style="fill:#fff"></path></g><path d="M306.45,371.81a6,6,0,0,1,.77-5.32l.68.43a5.23,5.23,0,0,0-.66,4.65Z" style="fill:#263238"></path><path d="M306.86,371h.72a2.68,2.68,0,0,1,2.68,2.68v17.7a0,0,0,0,1,0,0h-6.08a0,0,0,0,1,0,0v-17.7A2.68,2.68,0,0,1,306.86,371Z" style="fill:#455a64"></path><path d="M310.21,390a17.06,17.06,0,0,1-3.17-2.67,16,16,0,0,1-2.8-3A16.83,16.83,0,0,1,307.4,387,16.6,16.6,0,0,1,310.21,390Z" style="fill:#fff"></path><path d="M310.21,385.37A17.06,17.06,0,0,1,307,382.7a16.68,16.68,0,0,1-2.8-3,32.71,32.71,0,0,1,6,5.71Z" style="fill:#fff"></path><path d="M310.21,380.73a16.75,16.75,0,0,1-3.17-2.66,16.18,16.18,0,0,1-2.8-3.05,33.63,33.63,0,0,1,6,5.71Z" style="fill:#fff"></path><path d="M310.21,376.1a12.77,12.77,0,0,1-2.74-2.24,12.05,12.05,0,0,1-2.38-2.62,12.51,12.51,0,0,1,2.74,2.24A11.74,11.74,0,0,1,310.21,376.1Z" style="fill:#fff"></path><path d="M336.27,353.08c0-.05-.08-.11-.15-.1s-.1.09-.12.16a5.9,5.9,0,0,1-1.24,2.15,14.66,14.66,0,0,0-1.51,2,3.25,3.25,0,0,0-.55,2.37,2.17,2.17,0,0,0,1.93,1.53,2.24,2.24,0,0,0,1.56-.33,2.84,2.84,0,0,0,.79-1.06A7.25,7.25,0,0,0,336.27,353.08Z" style="fill:#FF81AE"></path><g style="opacity:0.5"><path d="M336.35,356.84a.71.71,0,0,0-.47-.52c-.32-.07-.62.18-.85.42a4.66,4.66,0,0,0-1.11,1.78,3.53,3.53,0,0,0,0,2.4,2.7,2.7,0,0,0,1.71-1.22,5.14,5.14,0,0,0,.71-2.1A1.94,1.94,0,0,0,336.35,356.84Z" style="fill:#fff"></path></g><path d="M333.66,364.76a6,6,0,0,1,.77-5.33l.68.44a5.26,5.26,0,0,0-.66,4.65Z" style="fill:#263238"></path><path d="M334.07,363.95h.72a2.68,2.68,0,0,1,2.68,2.68v17.7a0,0,0,0,1,0,0h-6.08a0,0,0,0,1,0,0v-17.7A2.68,2.68,0,0,1,334.07,363.95Z" style="fill:#FF81AE"></path><path d="M337.42,383a16.83,16.83,0,0,1-3.16-2.67,16.53,16.53,0,0,1-2.81-3,16.53,16.53,0,0,1,3.16,2.66A16,16,0,0,1,337.42,383Z" style="fill:#fff"></path><path d="M337.42,378.31a16.53,16.53,0,0,1-3.16-2.66,16,16,0,0,1-2.81-3,16.83,16.83,0,0,1,3.16,2.67A16.53,16.53,0,0,1,337.42,378.31Z" style="fill:#fff"></path><path d="M337.42,373.68a16.83,16.83,0,0,1-3.16-2.67,15.84,15.84,0,0,1-2.81-3,16.83,16.83,0,0,1,3.16,2.67A16.18,16.18,0,0,1,337.42,373.68Z" style="fill:#fff"></path><path d="M337.42,369.05a12.77,12.77,0,0,1-2.74-2.24,12.32,12.32,0,0,1-2.38-2.62,12.51,12.51,0,0,1,2.74,2.24A11.74,11.74,0,0,1,337.42,369.05Z" style="fill:#fff"></path><path d="M209.63,362.48a.19.19,0,0,0-.15-.11c-.07,0-.11.09-.12.16a5.94,5.94,0,0,1-1.24,2.16,15.2,15.2,0,0,0-1.51,2,3.29,3.29,0,0,0-.55,2.38A2.17,2.17,0,0,0,208,370.6a2.29,2.29,0,0,0,1.56-.33,2.92,2.92,0,0,0,.79-1.06A7.25,7.25,0,0,0,209.63,362.48Z" style="fill:#FF81AE"></path><g style="opacity:0.5"><path d="M209.71,366.24a.69.69,0,0,0-.47-.52,1,1,0,0,0-.85.42,4.55,4.55,0,0,0-1.11,1.77,3.56,3.56,0,0,0,0,2.41,2.68,2.68,0,0,0,1.71-1.23,5.09,5.09,0,0,0,.71-2.09A2.15,2.15,0,0,0,209.71,366.24Z" style="fill:#fff"></path></g><path d="M207,374.15a6,6,0,0,1,.77-5.32l.68.44a5.22,5.22,0,0,0-.66,4.65Z" style="fill:#263238"></path><path d="M207.43,373.34h.72a2.68,2.68,0,0,1,2.68,2.68v17.7a0,0,0,0,1,0,0h-6.08a0,0,0,0,1,0,0V376A2.68,2.68,0,0,1,207.43,373.34Z" style="fill:#FF81AE"></path><path d="M210.78,392.34a16.4,16.4,0,0,1-3.17-2.66,17,17,0,0,1-2.81-3A16,16,0,0,1,208,389.3,17,17,0,0,1,210.78,392.34Z" style="fill:#fff"></path><path d="M210.78,387.71a16.7,16.7,0,0,1-3.17-2.67,16.25,16.25,0,0,1-2.81-3,33.24,33.24,0,0,1,6,5.71Z" style="fill:#fff"></path><path d="M210.78,383.08a16.7,16.7,0,0,1-3.17-2.67,17,17,0,0,1-2.81-3,32.34,32.34,0,0,1,6,5.71Z" style="fill:#fff"></path><path d="M210.78,378.44A12.16,12.16,0,0,1,208,376.2a12.41,12.41,0,0,1-2.38-2.61,11.83,11.83,0,0,1,2.74,2.24A12.41,12.41,0,0,1,210.78,378.44Z" style="fill:#fff"></path><path d="M241.08,364.69a.17.17,0,0,0-.14-.11c-.08,0-.11.09-.13.16a5.91,5.91,0,0,1-1.23,2.16,14.64,14.64,0,0,0-1.52,2,3.29,3.29,0,0,0-.55,2.38,2.19,2.19,0,0,0,1.93,1.53,2.32,2.32,0,0,0,1.56-.33,2.92,2.92,0,0,0,.79-1.06A7.25,7.25,0,0,0,241.08,364.69Z" style="fill:#FF81AE"></path><g style="opacity:0.5"><path d="M241.16,368.45a.69.69,0,0,0-.47-.52,1,1,0,0,0-.85.42,4.79,4.79,0,0,0-1.11,1.77,3.56,3.56,0,0,0,0,2.41,2.65,2.65,0,0,0,1.71-1.23,5.14,5.14,0,0,0,.71-2.1A1.72,1.72,0,0,0,241.16,368.45Z" style="fill:#fff"></path></g><path d="M238.47,376.36a6,6,0,0,1,.77-5.32l.69.43a5.24,5.24,0,0,0-.67,4.66Z" style="fill:#263238"></path><path d="M238.88,375.55h.72a2.68,2.68,0,0,1,2.68,2.68v17.7a0,0,0,0,1,0,0H236.2a0,0,0,0,1,0,0v-17.7A2.68,2.68,0,0,1,238.88,375.55Z" style="fill:#455a64"></path><path d="M242.23,394.55a16.88,16.88,0,0,1-3.16-2.66,16.47,16.47,0,0,1-2.81-3.05,17.06,17.06,0,0,1,3.17,2.67A16.68,16.68,0,0,1,242.23,394.55Z" style="fill:#fff"></path><path d="M242.23,389.92a17.2,17.2,0,0,1-3.16-2.67,16.6,16.6,0,0,1-2.81-3,17.06,17.06,0,0,1,3.17,2.67A16,16,0,0,1,242.23,389.92Z" style="fill:#fff"></path><path d="M242.23,385.28a33.1,33.1,0,0,1-6-5.7,32.25,32.25,0,0,1,6,5.7Z" style="fill:#fff"></path><path d="M242.24,380.65a12.08,12.08,0,0,1-2.75-2.24,12.41,12.41,0,0,1-2.38-2.61,11.7,11.7,0,0,1,2.74,2.23A12.83,12.83,0,0,1,242.24,380.65Z" style="fill:#fff"></path><path d="M274.72,364.29c0-.05-.08-.11-.15-.1s-.11.09-.12.16a5.9,5.9,0,0,1-1.24,2.15,14.66,14.66,0,0,0-1.51,2,3.28,3.28,0,0,0-.55,2.38,2.18,2.18,0,0,0,1.93,1.52,2.24,2.24,0,0,0,1.56-.33,2.84,2.84,0,0,0,.79-1.06A7.25,7.25,0,0,0,274.72,364.29Z" style="fill:#FF81AE"></path><g style="opacity:0.5"><path d="M274.8,368.05a.7.7,0,0,0-.48-.52c-.31-.07-.61.18-.84.42a4.66,4.66,0,0,0-1.11,1.78,3.56,3.56,0,0,0,0,2.41,2.74,2.74,0,0,0,1.71-1.23,5.14,5.14,0,0,0,.71-2.1A2.16,2.16,0,0,0,274.8,368.05Z" style="fill:#fff"></path></g><path d="M272.11,376a6,6,0,0,1,.76-5.33l.69.44a5.19,5.19,0,0,0-.66,4.65Z" style="fill:#263238"></path><path d="M272.52,375.16h.72a2.68,2.68,0,0,1,2.68,2.68v17.7a0,0,0,0,1,0,0h-6.08a0,0,0,0,1,0,0v-17.7A2.68,2.68,0,0,1,272.52,375.16Z" style="fill:#FF81AE"></path><path d="M275.87,394.16a33.24,33.24,0,0,1-6-5.71,16.86,16.86,0,0,1,3.17,2.66A16.47,16.47,0,0,1,275.87,394.16Z" style="fill:#fff"></path><path d="M275.87,389.52a16.4,16.4,0,0,1-3.17-2.66,17,17,0,0,1-2.81-3,16,16,0,0,1,3.17,2.66A17,17,0,0,1,275.87,389.52Z" style="fill:#fff"></path><path d="M275.87,384.89a16.7,16.7,0,0,1-3.17-2.67,16.25,16.25,0,0,1-2.81-3,33.24,33.24,0,0,1,6,5.71Z" style="fill:#fff"></path><path d="M275.87,380.26a12.51,12.51,0,0,1-2.74-2.24,11.74,11.74,0,0,1-2.38-2.62,12.51,12.51,0,0,1,2.74,2.24A12.05,12.05,0,0,1,275.87,380.26Z" style="fill:#fff"></path></g></svg>
